<?xml version="1.0" encoding="UTF-8" standalone="no"?>
<!DOCTYPE svg PUBLIC "-//W3C//DTD SVG 1.1//EN"
 "http://www.w3.org/Graphics/SVG/1.1/DTD/svg11.dtd">
<!-- Generated by graphviz version 13.1.2 (20250808.2320)
 -->
<!-- Title: G Pages: 1 -->
<svg width="649pt" height="859pt"
 viewBox="0.00 0.00 649.00 859.00" xmlns="http://www.w3.org/2000/svg" xmlns:xlink="http://www.w3.org/1999/xlink">
<g id="graph0" class="graph" transform="scale(1 1) rotate(0) translate(18 841)">
<title>G</title>
<polygon fill="white" stroke="none" points="-18,18 -18,-841 630.55,-841 630.55,18 -18,18"/>
<text xml:space="preserve" text-anchor="middle" x="306.27" y="-800" font-family="Microsoft YaHei" font-size="20.00">第 3 轮细化溯源图</text>
<g id="clust1" class="cluster">
<title>cluster_1</title>
<path fill="white" stroke="#90a4ae" d="M20,-8C20,-8 592.55,-8 592.55,-8 598.55,-8 604.55,-14 604.55,-20 604.55,-20 604.55,-144 604.55,-144 604.55,-150 598.55,-156 592.55,-156 592.55,-156 20,-156 20,-156 14,-156 8,-150 8,-144 8,-144 8,-20 8,-20 8,-14 14,-8 20,-8"/>
<text xml:space="preserve" text-anchor="middle" x="306.27" y="-133" font-family="Microsoft YaHei" font-size="20.00">父类 D1</text>
</g>
<g id="clust2" class="cluster">
<title>cluster_2</title>
<path fill="white" stroke="#90a4ae" d="M29,-164C29,-164 583.55,-164 583.55,-164 589.55,-164 595.55,-170 595.55,-176 595.55,-176 595.55,-300 595.55,-300 595.55,-306 589.55,-312 583.55,-312 583.55,-312 29,-312 29,-312 23,-312 17,-306 17,-300 17,-300 17,-176 17,-176 17,-170 23,-164 29,-164"/>
<text xml:space="preserve" text-anchor="middle" x="306.27" y="-289" font-family="Microsoft YaHei" font-size="20.00">父类 D2</text>
</g>
<g id="clust3" class="cluster">
<title>cluster_3</title>
<path fill="white" stroke="#90a4ae" d="M32,-320C32,-320 583.92,-320 583.92,-320 589.92,-320 595.92,-326 595.92,-332 595.92,-332 595.92,-456 595.92,-456 595.92,-462 589.92,-468 583.92,-468 583.92,-468 32,-468 32,-468 26,-468 20,-462 20,-456 20,-456 20,-332 20,-332 20,-326 26,-320 32,-320"/>
<text xml:space="preserve" text-anchor="middle" x="307.96" y="-445" font-family="Microsoft YaHei" font-size="20.00">父类 N1</text>
</g>
<g id="clust4" class="cluster">
<title>cluster_4</title>
<path fill="white" stroke="#90a4ae" d="M28.62,-476C28.62,-476 583.92,-476 583.92,-476 589.92,-476 595.92,-482 595.92,-488 595.92,-488 595.92,-612 595.92,-612 595.92,-618 589.92,-624 583.92,-624 583.92,-624 28.62,-624 28.62,-624 22.62,-624 16.62,-618 16.62,-612 16.62,-612 16.62,-488 16.62,-488 16.62,-482 22.62,-476 28.62,-476"/>
<text xml:space="preserve" text-anchor="middle" x="306.27" y="-601" font-family="Microsoft YaHei" font-size="20.00">父类 N2</text>
</g>
<g id="clust5" class="cluster">
<title>cluster_5</title>
<path fill="white" stroke="#90a4ae" d="M32,-632C32,-632 583.92,-632 583.92,-632 589.92,-632 595.92,-638 595.92,-644 595.92,-644 595.92,-768 595.92,-768 595.92,-774 589.92,-780 583.92,-780 583.92,-780 32,-780 32,-780 26,-780 20,-774 20,-768 20,-768 20,-644 20,-644 20,-638 26,-632 32,-632"/>
<text xml:space="preserve" text-anchor="middle" x="307.96" y="-757" font-family="Microsoft YaHei" font-size="20.00">父类 N5</text>
</g>
<!-- p_1 -->
<g id="node1" class="node">
<title>p_1</title>
<path fill="#ffcdd2" stroke="#455a64" stroke-width="1.5" d="M169.9,-87C169.9,-87 28,-87 28,-87 22,-87 16,-81 16,-75 16,-75 16,-63 16,-63 16,-57 22,-51 28,-51 28,-51 169.9,-51 169.9,-51 175.9,-51 181.9,-57 181.9,-63 181.9,-63 181.9,-75 181.9,-75 181.9,-81 175.9,-87 169.9,-87"/>
<text xml:space="preserve" text-anchor="middle" x="98.95" y="-66.05" font-family="Microsoft YaHei" font-size="11.00">D1（上一轮）\n{s0, s15, s26}</text>
</g>
<!-- c_1_1 -->
<g id="node2" class="node">
<title>c_1_1</title>
<path fill="#ffcdd2" stroke="#455a64" d="M584.55,-52C584.55,-52 523.65,-52 523.65,-52 517.65,-52 511.65,-46 511.65,-40 511.65,-40 511.65,-28 511.65,-28 511.65,-22 517.65,-16 523.65,-16 523.65,-16 584.55,-16 584.55,-16 590.55,-16 596.55,-22 596.55,-28 596.55,-28 596.55,-40 596.55,-40 596.55,-46 590.55,-52 584.55,-52"/>
<text xml:space="preserve" text-anchor="middle" x="554.1" y="-31.05" font-family="Microsoft YaHei" font-size="11.00">D1\n{s0, s26}</text>
</g>
<!-- p_1&#45;&gt;c_1_1 -->
<g id="edge1" class="edge">
<title>p_1&#45;&gt;c_1_1</title>
<path fill="none" stroke="#607d8b" d="M182.52,-58.7C190.75,-57.81 198.99,-56.98 206.9,-56.25 310.51,-46.75 431.94,-39.94 499.96,-36.51"/>
<polygon fill="#607d8b" stroke="#607d8b" points="499.88,-40.02 509.7,-36.03 499.54,-33.03 499.88,-40.02"/>
<text xml:space="preserve" text-anchor="middle" x="346.77" y="-60.45" font-family="Microsoft YaHei" font-size="9.00">基准 signature</text>
</g>
<!-- c_1_2 -->
<g id="node3" class="node">
<title>c_1_2</title>
<path fill="#ffcdd2" stroke="#455a64" d="M575.55,-113C575.55,-113 532.65,-113 532.65,-113 526.65,-113 520.65,-107 520.65,-101 520.65,-101 520.65,-89 520.65,-89 520.65,-83 526.65,-77 532.65,-77 532.65,-77 575.55,-77 575.55,-77 581.55,-77 587.55,-83 587.55,-89 587.55,-89 587.55,-101 587.55,-101 587.55,-107 581.55,-113 575.55,-113"/>
<text xml:space="preserve" text-anchor="middle" x="554.1" y="-92.05" font-family="Microsoft YaHei" font-size="11.00">D2\n{s15}</text>
</g>
<!-- p_1&#45;&gt;c_1_2 -->
<g id="edge2" class="edge">
<title>p_1&#45;&gt;c_1_2</title>
<path fill="none" stroke="#607d8b" d="M182.54,-73.74C278.5,-79.24 433.29,-88.13 508.8,-92.46"/>
<polygon fill="#607d8b" stroke="#607d8b" points="508.53,-95.95 518.71,-93.03 508.93,-88.96 508.53,-95.95"/>
<text xml:space="preserve" text-anchor="middle" x="346.77" y="-94.84" font-family="Microsoft YaHei" font-size="9.00">registrationRequest: N1→N2</text>
</g>
<!-- p_2 -->
<g id="node4" class="node">
<title>p_2</title>
<path fill="#ffcdd2" stroke="#455a64" stroke-width="1.5" d="M160.9,-243C160.9,-243 37,-243 37,-243 31,-243 25,-237 25,-231 25,-231 25,-219 25,-219 25,-213 31,-207 37,-207 37,-207 160.9,-207 160.9,-207 166.9,-207 172.9,-213 172.9,-219 172.9,-219 172.9,-231 172.9,-231 172.9,-237 166.9,-243 160.9,-243"/>
<text xml:space="preserve" text-anchor="middle" x="98.95" y="-222.05" font-family="Microsoft YaHei" font-size="11.00">D2（上一轮）\n{s10, s23}</text>
</g>
<!-- c_2_1 -->
<g id="node5" class="node">
<title>c_2_1</title>
<path fill="#ffcdd2" stroke="#455a64" d="M575.55,-208C575.55,-208 532.65,-208 532.65,-208 526.65,-208 520.65,-202 520.65,-196 520.65,-196 520.65,-184 520.65,-184 520.65,-178 526.65,-172 532.65,-172 532.65,-172 575.55,-172 575.55,-172 581.55,-172 587.55,-178 587.55,-184 587.55,-184 587.55,-196 587.55,-196 587.55,-202 581.55,-208 575.55,-208"/>
<text xml:space="preserve" text-anchor="middle" x="554.1" y="-187.05" font-family="Microsoft YaHei" font-size="11.00">D3\n{s10}</text>
</g>
<!-- p_2&#45;&gt;c_2_1 -->
<g id="edge3" class="edge">
<title>p_2&#45;&gt;c_2_1</title>
<path fill="none" stroke="#607d8b" d="M173.54,-215.69C184.7,-214.44 196.1,-213.24 206.9,-212.25 315.53,-202.29 443.75,-195.29 509.46,-192.04"/>
<polygon fill="#607d8b" stroke="#607d8b" points="509.27,-195.55 519.09,-191.57 508.93,-188.56 509.27,-195.55"/>
<text xml:space="preserve" text-anchor="middle" x="346.77" y="-216.45" font-family="Microsoft YaHei" font-size="9.00">基准 signature</text>
</g>
<!-- c_2_2 -->
<g id="node6" class="node">
<title>c_2_2</title>
<path fill="#ffcdd2" stroke="#455a64" d="M575.55,-269C575.55,-269 532.65,-269 532.65,-269 526.65,-269 520.65,-263 520.65,-257 520.65,-257 520.65,-245 520.65,-245 520.65,-239 526.65,-233 532.65,-233 532.65,-233 575.55,-233 575.55,-233 581.55,-233 587.55,-239 587.55,-245 587.55,-245 587.55,-257 587.55,-257 587.55,-263 581.55,-269 575.55,-269"/>
<text xml:space="preserve" text-anchor="middle" x="554.1" y="-248.05" font-family="Microsoft YaHei" font-size="11.00">D4\n{s23}</text>
</g>
<!-- p_2&#45;&gt;c_2_2 -->
<g id="edge4" class="edge">
<title>p_2&#45;&gt;c_2_2</title>
<path fill="none" stroke="#607d8b" d="M173.51,-229.22C268.64,-234.68 431.3,-244.01 509.11,-248.48"/>
<polygon fill="#607d8b" stroke="#607d8b" points="508.71,-251.96 518.9,-249.04 509.11,-244.97 508.71,-251.96"/>
<text xml:space="preserve" text-anchor="middle" x="346.77" y="-250.84" font-family="Microsoft YaHei" font-size="9.00">registrationRequest: N2→N1</text>
</g>
<!-- p_3 -->
<g id="node7" class="node">
<title>p_3</title>
<path fill="#bbdefb" stroke="#455a64" stroke-width="1.5" d="M157.9,-399C157.9,-399 40,-399 40,-399 34,-399 28,-393 28,-387 28,-387 28,-375 28,-375 28,-369 34,-363 40,-363 40,-363 157.9,-363 157.9,-363 163.9,-363 169.9,-369 169.9,-375 169.9,-375 169.9,-387 169.9,-387 169.9,-393 163.9,-399 157.9,-399"/>
<text xml:space="preserve" text-anchor="middle" x="98.95" y="-378.05" font-family="Microsoft YaHei" font-size="11.00">N1（上一轮）\n{s1, s24}</text>
</g>
<!-- c_3_1 -->
<g id="node8" class="node">
<title>c_3_1</title>
<path fill="#bbdefb" stroke="#455a64" d="M572.55,-364C572.55,-364 535.65,-364 535.65,-364 529.65,-364 523.65,-358 523.65,-352 523.65,-352 523.65,-340 523.65,-340 523.65,-334 529.65,-328 535.65,-328 535.65,-328 572.55,-328 572.55,-328 578.55,-328 584.55,-334 584.55,-340 584.55,-340 584.55,-352 584.55,-352 584.55,-358 578.55,-364 572.55,-364"/>
<text xml:space="preserve" text-anchor="middle" x="554.1" y="-343.05" font-family="Microsoft YaHei" font-size="11.00">N1\n{s1}</text>
</g>
<!-- p_3&#45;&gt;c_3_1 -->
<g id="edge5" class="edge">
<title>p_3&#45;&gt;c_3_1</title>
<path fill="none" stroke="#607d8b" d="M170.37,-372.05C182.54,-370.66 195.08,-369.33 206.9,-368.25 317,-358.16 447.22,-351.1 512.09,-347.91"/>
<polygon fill="#607d8b" stroke="#607d8b" points="512.09,-351.42 521.91,-347.43 511.75,-344.42 512.09,-351.42"/>
<text xml:space="preserve" text-anchor="middle" x="346.77" y="-372.45" font-family="Microsoft YaHei" font-size="9.00">基准 signature</text>
</g>
<!-- c_3_2 -->
<g id="node9" class="node">
<title>c_3_2</title>
<path fill="#bbdefb" stroke="#455a64" d="M575.92,-425C575.92,-425 532.27,-425 532.27,-425 526.27,-425 520.27,-419 520.27,-413 520.27,-413 520.27,-401 520.27,-401 520.27,-395 526.27,-389 532.27,-389 532.27,-389 575.92,-389 575.92,-389 581.92,-389 587.92,-395 587.92,-401 587.92,-401 587.92,-413 587.92,-413 587.92,-419 581.92,-425 575.92,-425"/>
<text xml:space="preserve" text-anchor="middle" x="554.1" y="-404.05" font-family="Microsoft YaHei" font-size="11.00">N2\n{s24}</text>
</g>
<!-- p_3&#45;&gt;c_3_2 -->
<g id="edge6" class="edge">
<title>p_3&#45;&gt;c_3_2</title>
<path fill="none" stroke="#607d8b" d="M170.26,-385.03C264.6,-390.45 429.43,-399.9 508.42,-404.44"/>
<polygon fill="#607d8b" stroke="#607d8b" points="508.19,-407.93 518.37,-405.01 508.59,-400.94 508.19,-407.93"/>
<text xml:space="preserve" text-anchor="middle" x="346.77" y="-406.84" font-family="Microsoft YaHei" font-size="9.00">registrationRequest: N1→N2</text>
</g>
<!-- p_4 -->
<g id="node10" class="node">
<title>p_4</title>
<path fill="#bbdefb" stroke="#455a64" stroke-width="1.5" d="M161.27,-555C161.27,-555 36.62,-555 36.62,-555 30.62,-555 24.62,-549 24.62,-543 24.62,-543 24.62,-531 24.62,-531 24.62,-525 30.62,-519 36.62,-519 36.62,-519 161.27,-519 161.27,-519 167.27,-519 173.27,-525 173.27,-531 173.27,-531 173.27,-543 173.27,-543 173.27,-549 167.27,-555 161.27,-555"/>
<text xml:space="preserve" text-anchor="middle" x="98.95" y="-534.05" font-family="Microsoft YaHei" font-size="11.00">N2（上一轮）\n{s11, s14}</text>
</g>
<!-- c_4_1 -->
<g id="node11" class="node">
<title>c_4_1</title>
<path fill="#bbdefb" stroke="#455a64" d="M575.92,-520C575.92,-520 532.27,-520 532.27,-520 526.27,-520 520.27,-514 520.27,-508 520.27,-508 520.27,-496 520.27,-496 520.27,-490 526.27,-484 532.27,-484 532.27,-484 575.92,-484 575.92,-484 581.92,-484 587.92,-490 587.92,-496 587.92,-496 587.92,-508 587.92,-508 587.92,-514 581.92,-520 575.92,-520"/>
<text xml:space="preserve" text-anchor="middle" x="554.1" y="-499.05" font-family="Microsoft YaHei" font-size="11.00">N3\n{s11}</text>
</g>
<!-- p_4&#45;&gt;c_4_1 -->
<g id="edge7" class="edge">
<title>p_4&#45;&gt;c_4_1</title>
<path fill="none" stroke="#607d8b" d="M173.82,-527.66C184.9,-526.42 196.19,-525.23 206.9,-524.25 315.25,-514.32 443.08,-507.32 508.94,-504.07"/>
<polygon fill="#607d8b" stroke="#607d8b" points="508.79,-507.58 518.61,-503.59 508.45,-500.59 508.79,-507.58"/>
<text xml:space="preserve" text-anchor="middle" x="346.77" y="-528.45" font-family="Microsoft YaHei" font-size="9.00">基准 signature</text>
</g>
<!-- c_4_2 -->
<g id="node12" class="node">
<title>c_4_2</title>
<path fill="#bbdefb" stroke="#455a64" d="M575.92,-581C575.92,-581 532.27,-581 532.27,-581 526.27,-581 520.27,-575 520.27,-569 520.27,-569 520.27,-557 520.27,-557 520.27,-551 526.27,-545 532.27,-545 532.27,-545 575.92,-545 575.92,-545 581.92,-545 587.92,-551 587.92,-557 587.92,-557 587.92,-569 587.92,-569 587.92,-575 581.92,-581 575.92,-581"/>
<text xml:space="preserve" text-anchor="middle" x="554.1" y="-560.05" font-family="Microsoft YaHei" font-size="11.00">N4\n{s14}</text>
</g>
<!-- p_4&#45;&gt;c_4_2 -->
<g id="edge8" class="edge">
<title>p_4&#45;&gt;c_4_2</title>
<path fill="none" stroke="#607d8b" d="M174.02,-541.25C269.02,-546.7 430.77,-555.98 508.64,-560.45"/>
<polygon fill="#607d8b" stroke="#607d8b" points="508.25,-563.93 518.43,-561.01 508.65,-556.94 508.25,-563.93"/>
<text xml:space="preserve" text-anchor="middle" x="346.77" y="-562.84" font-family="Microsoft YaHei" font-size="9.00">registrationRequest: N1→N2\nregistrationRequestGUTI: N1→N2</text>
</g>
<!-- p_5 -->
<g id="node13" class="node">
<title>p_5</title>
<path fill="#bbdefb" stroke="#455a64" stroke-width="1.5" d="M157.9,-711C157.9,-711 40,-711 40,-711 34,-711 28,-705 28,-699 28,-699 28,-687 28,-687 28,-681 34,-675 40,-675 40,-675 157.9,-675 157.9,-675 163.9,-675 169.9,-681 169.9,-687 169.9,-687 169.9,-699 169.9,-699 169.9,-705 163.9,-711 157.9,-711"/>
<text xml:space="preserve" text-anchor="middle" x="98.95" y="-690.05" font-family="Microsoft YaHei" font-size="11.00">N5（上一轮）\n{s4, s25}</text>
</g>
<!-- c_5_1 -->
<g id="node14" class="node">
<title>c_5_1</title>
<path fill="#bbdefb" stroke="#455a64" d="M572.55,-676C572.55,-676 535.65,-676 535.65,-676 529.65,-676 523.65,-670 523.65,-664 523.65,-664 523.65,-652 523.65,-652 523.65,-646 529.65,-640 535.65,-640 535.65,-640 572.55,-640 572.55,-640 578.55,-640 584.55,-646 584.55,-652 584.55,-652 584.55,-664 584.55,-664 584.55,-670 578.55,-676 572.55,-676"/>
<text xml:space="preserve" text-anchor="middle" x="554.1" y="-655.05" font-family="Microsoft YaHei" font-size="11.00">N7\n{s4}</text>
</g>
<!-- p_5&#45;&gt;c_5_1 -->
<g id="edge9" class="edge">
<title>p_5&#45;&gt;c_5_1</title>
<path fill="none" stroke="#607d8b" d="M170.37,-684.05C182.54,-682.66 195.08,-681.33 206.9,-680.25 317,-670.16 447.22,-663.1 512.09,-659.91"/>
<polygon fill="#607d8b" stroke="#607d8b" points="512.09,-663.42 521.91,-659.43 511.75,-656.42 512.09,-663.42"/>
<text xml:space="preserve" text-anchor="middle" x="346.77" y="-684.45" font-family="Microsoft YaHei" font-size="9.00">基准 signature</text>
</g>
<!-- c_5_2 -->
<g id="node15" class="node">
<title>c_5_2</title>
<path fill="#bbdefb" stroke="#455a64" d="M575.92,-737C575.92,-737 532.27,-737 532.27,-737 526.27,-737 520.27,-731 520.27,-725 520.27,-725 520.27,-713 520.27,-713 520.27,-707 526.27,-701 532.27,-701 532.27,-701 575.92,-701 575.92,-701 581.92,-701 587.92,-707 587.92,-713 587.92,-713 587.92,-725 587.92,-725 587.92,-731 581.92,-737 575.92,-737"/>
<text xml:space="preserve" text-anchor="middle" x="554.1" y="-716.05" font-family="Microsoft YaHei" font-size="11.00">N8\n{s25}</text>
</g>
<!-- p_5&#45;&gt;c_5_2 -->
<g id="edge10" class="edge">
<title>p_5&#45;&gt;c_5_2</title>
<path fill="none" stroke="#607d8b" d="M170.26,-697.03C264.6,-702.45 429.43,-711.9 508.42,-716.44"/>
<polygon fill="#607d8b" stroke="#607d8b" points="508.19,-719.93 518.37,-717.01 508.59,-712.94 508.19,-719.93"/>
<text xml:space="preserve" text-anchor="middle" x="346.77" y="-718.84" font-family="Microsoft YaHei" font-size="9.00">registrationRequest: N1→N2</text>
</g>
</g>
</svg>
