<?xml version="1.0" encoding="UTF-8" standalone="no"?>
<!DOCTYPE svg PUBLIC "-//W3C//DTD SVG 1.1//EN"
 "http://www.w3.org/Graphics/SVG/1.1/DTD/svg11.dtd">
<!-- Generated by graphviz version 13.1.2 (20250808.2320)
 -->
<!-- Title: G Pages: 1 -->
<svg width="488pt" height="473pt"
 viewBox="0.00 0.00 488.00 473.00" xmlns="http://www.w3.org/2000/svg" xmlns:xlink="http://www.w3.org/1999/xlink">
<g id="graph0" class="graph" transform="scale(1 1) rotate(0) translate(18 455)">
<title>G</title>
<polygon fill="white" stroke="none" points="-18,18 -18,-455 470.18,-455 470.18,18 -18,18"/>
<text xml:space="preserve" text-anchor="middle" x="226.09" y="-414" font-family="Microsoft YaHei" font-size="20.00">初始七类分类（Open5GS NAS profile）</text>
<!-- partition_0 -->
<g id="node1" class="node">
<title>partition_0</title>
<ellipse fill="#eceff1" stroke="#455a64" stroke-width="1.4" cx="72.76" cy="-201" rx="72.76" ry="18"/>
<text xml:space="preserve" text-anchor="middle" x="72.76" y="-198.05" font-family="Microsoft YaHei" font-size="11.00">轮次 0\n类别数: 7</text>
</g>
<!-- g_D -->
<g id="node2" class="node">
<title>g_D</title>
<path fill="#ffcdd2" stroke="#455a64" d="M421.8,-402C421.8,-402 243.9,-402 243.9,-402 237.9,-402 231.9,-396 231.9,-390 231.9,-390 231.9,-378 231.9,-378 231.9,-372 237.9,-366 243.9,-366 243.9,-366 421.8,-366 421.8,-366 427.8,-366 433.8,-372 433.8,-378 433.8,-378 433.8,-390 433.8,-390 433.8,-396 427.8,-402 421.8,-402"/>
<text xml:space="preserve" text-anchor="middle" x="332.85" y="-381.05" font-family="Microsoft YaHei" font-size="11.00">D\n{s0, s10, s13, s15, s16, s23, s26}</text>
</g>
<!-- partition_0&#45;&gt;g_D -->
<g id="edge1" class="edge">
<title>partition_0&#45;&gt;g_D</title>
<path fill="none" stroke="#607d8b" d="M85.15,-219.26C106.3,-251.62 154.88,-318.89 213.53,-354 217.84,-356.58 222.36,-358.94 227.03,-361.1"/>
<polygon fill="#607d8b" stroke="#607d8b" points="225.47,-364.24 236.04,-364.92 228.2,-357.79 225.47,-364.24"/>
<text xml:space="preserve" text-anchor="middle" x="179.53" y="-338.93" font-family="Microsoft YaHei" font-size="9.00">包含</text>
</g>
<!-- g_N -->
<g id="node3" class="node">
<title>g_N</title>
<path fill="#bbdefb" stroke="#455a64" d="M440.18,-341C440.18,-341 225.53,-341 225.53,-341 219.53,-341 213.53,-335 213.53,-329 213.53,-329 213.53,-317 213.53,-317 213.53,-311 219.53,-305 225.53,-305 225.53,-305 440.18,-305 440.18,-305 446.18,-305 452.18,-311 452.18,-317 452.18,-317 452.18,-329 452.18,-329 452.18,-335 446.18,-341 440.18,-341"/>
<text xml:space="preserve" text-anchor="middle" x="332.85" y="-320.05" font-family="Microsoft YaHei" font-size="11.00">N\n{s1, s4, s7, s11, s14, s19, s21, s24, s25}</text>
</g>
<!-- partition_0&#45;&gt;g_N -->
<g id="edge2" class="edge">
<title>partition_0&#45;&gt;g_N</title>
<path fill="none" stroke="#607d8b" d="M95.19,-218.43C121.53,-239.05 168.34,-273.08 213.53,-293 220.16,-295.92 227.13,-298.6 234.23,-301.05"/>
<polygon fill="#607d8b" stroke="#607d8b" points="233.05,-304.34 243.64,-304.11 235.22,-297.69 233.05,-304.34"/>
<text xml:space="preserve" text-anchor="middle" x="179.53" y="-282.98" font-family="Microsoft YaHei" font-size="9.00">包含</text>
</g>
<!-- g_NG -->
<g id="node4" class="node">
<title>g_NG</title>
<path fill="#c8e6c9" stroke="#455a64" d="M376.8,-280C376.8,-280 288.9,-280 288.9,-280 282.9,-280 276.9,-274 276.9,-268 276.9,-268 276.9,-256 276.9,-256 276.9,-250 282.9,-244 288.9,-244 288.9,-244 376.8,-244 376.8,-244 382.8,-244 388.8,-250 388.8,-256 388.8,-256 388.8,-268 388.8,-268 388.8,-274 382.8,-280 376.8,-280"/>
<text xml:space="preserve" text-anchor="middle" x="332.85" y="-259.05" font-family="Microsoft YaHei" font-size="11.00">NG\n{s8, s17, s18}</text>
</g>
<!-- partition_0&#45;&gt;g_NG -->
<g id="edge3" class="edge">
<title>partition_0&#45;&gt;g_NG</title>
<path fill="none" stroke="#607d8b" d="M126.93,-213.57C167.11,-223.06 222.51,-236.16 265.58,-246.34"/>
<polygon fill="#607d8b" stroke="#607d8b" points="264.52,-249.68 275.06,-248.58 266.13,-242.87 264.52,-249.68"/>
<text xml:space="preserve" text-anchor="middle" x="179.53" y="-232.05" font-family="Microsoft YaHei" font-size="9.00">包含</text>
</g>
<!-- g_A -->
<g id="node5" class="node">
<title>g_A</title>
<path fill="#fff9c4" stroke="#455a64" d="M405.68,-219C405.68,-219 260.03,-219 260.03,-219 254.03,-219 248.03,-213 248.03,-207 248.03,-207 248.03,-195 248.03,-195 248.03,-189 254.03,-183 260.03,-183 260.03,-183 405.68,-183 405.68,-183 411.68,-183 417.68,-189 417.68,-195 417.68,-195 417.68,-207 417.68,-207 417.68,-213 411.68,-219 405.68,-219"/>
<text xml:space="preserve" text-anchor="middle" x="332.85" y="-198.05" font-family="Microsoft YaHei" font-size="11.00">A\n{s3, s9, s12, s20, s22, s27}</text>
</g>
<!-- partition_0&#45;&gt;g_A -->
<g id="edge4" class="edge">
<title>partition_0&#45;&gt;g_A</title>
<path fill="none" stroke="#607d8b" d="M146,-201C174.03,-201 206.53,-201 236.44,-201"/>
<polygon fill="#607d8b" stroke="#607d8b" points="236.25,-204.5 246.25,-201 236.25,-197.5 236.25,-204.5"/>
<text xml:space="preserve" text-anchor="middle" x="179.53" y="-205.2" font-family="Microsoft YaHei" font-size="9.00">包含</text>
</g>
<!-- g_S -->
<g id="node6" class="node">
<title>g_S</title>
<path fill="#e1bee7" stroke="#455a64" d="M347.85,-158C347.85,-158 317.85,-158 317.85,-158 311.85,-158 305.85,-152 305.85,-146 305.85,-146 305.85,-134 305.85,-134 305.85,-128 311.85,-122 317.85,-122 317.85,-122 347.85,-122 347.85,-122 353.85,-122 359.85,-128 359.85,-134 359.85,-134 359.85,-146 359.85,-146 359.85,-152 353.85,-158 347.85,-158"/>
<text xml:space="preserve" text-anchor="middle" x="332.85" y="-137.05" font-family="Microsoft YaHei" font-size="11.00">S\n{s5}</text>
</g>
<!-- partition_0&#45;&gt;g_S -->
<g id="edge5" class="edge">
<title>partition_0&#45;&gt;g_S</title>
<path fill="none" stroke="#607d8b" d="M126.93,-188.43C176.91,-176.62 250.45,-159.24 294.5,-148.83"/>
<polygon fill="#607d8b" stroke="#607d8b" points="295.17,-152.27 304.09,-146.56 293.56,-145.45 295.17,-152.27"/>
<text xml:space="preserve" text-anchor="middle" x="179.53" y="-181.96" font-family="Microsoft YaHei" font-size="9.00">包含</text>
</g>
<!-- g_R -->
<g id="node7" class="node">
<title>g_R</title>
<path fill="#ffe0b2" stroke="#455a64" d="M347.85,-97C347.85,-97 317.85,-97 317.85,-97 311.85,-97 305.85,-91 305.85,-85 305.85,-85 305.85,-73 305.85,-73 305.85,-67 311.85,-61 317.85,-61 317.85,-61 347.85,-61 347.85,-61 353.85,-61 359.85,-67 359.85,-73 359.85,-73 359.85,-85 359.85,-85 359.85,-91 353.85,-97 347.85,-97"/>
<text xml:space="preserve" text-anchor="middle" x="332.85" y="-76.05" font-family="Microsoft YaHei" font-size="11.00">R\n{s6}</text>
</g>
<!-- partition_0&#45;&gt;g_R -->
<g id="edge6" class="edge">
<title>partition_0&#45;&gt;g_R</title>
<path fill="none" stroke="#607d8b" d="M95.71,-183.48C122.2,-163.12 168.78,-129.8 213.53,-110 239.56,-98.48 270.78,-90.52 294.61,-85.56"/>
<polygon fill="#607d8b" stroke="#607d8b" points="295.05,-89.04 304.17,-83.65 293.68,-82.17 295.05,-89.04"/>
<text xml:space="preserve" text-anchor="middle" x="179.53" y="-135.18" font-family="Microsoft YaHei" font-size="9.00">包含</text>
</g>
<!-- g_X -->
<g id="node8" class="node">
<title>g_X</title>
<path fill="#cfd8dc" stroke="#455a64" d="M347.85,-36C347.85,-36 317.85,-36 317.85,-36 311.85,-36 305.85,-30 305.85,-24 305.85,-24 305.85,-12 305.85,-12 305.85,-6 311.85,0 317.85,0 317.85,0 347.85,0 347.85,0 353.85,0 359.85,-6 359.85,-12 359.85,-12 359.85,-24 359.85,-24 359.85,-30 353.85,-36 347.85,-36"/>
<text xml:space="preserve" text-anchor="middle" x="332.85" y="-15.05" font-family="Microsoft YaHei" font-size="11.00">X\n{s2}</text>
</g>
<!-- partition_0&#45;&gt;g_X -->
<g id="edge7" class="edge">
<title>partition_0&#45;&gt;g_X</title>
<path fill="none" stroke="#607d8b" d="M85.37,-182.65C106.7,-150.49 155.32,-84.03 213.53,-49 238.23,-34.13 270.02,-26.31 294.42,-22.25"/>
<polygon fill="#607d8b" stroke="#607d8b" points="294.88,-25.72 304.25,-20.77 293.84,-18.8 294.88,-25.72"/>
<text xml:space="preserve" text-anchor="middle" x="179.53" y="-83.38" font-family="Microsoft YaHei" font-size="9.00">包含</text>
</g>
</g>
</svg>
