<?xml version="1.0" encoding="UTF-8" standalone="no"?>
<!DOCTYPE svg PUBLIC "-//W3C//DTD SVG 1.1//EN"
 "http://www.w3.org/Graphics/SVG/1.1/DTD/svg11.dtd">
<!-- Generated by graphviz version 13.1.2 (20250808.2320)
 -->
<!-- Title: g Pages: 1 -->
<svg width="3398pt" height="1318pt"
 viewBox="0.00 0.00 3398.00 1318.00" xmlns="http://www.w3.org/2000/svg" xmlns:xlink="http://www.w3.org/1999/xlink">
<g id="graph0" class="graph" transform="scale(1 1) rotate(0) translate(18 1299.97)">
<title>g</title>
<polygon fill="white" stroke="none" points="-18,18 -18,-1299.97 3380.34,-1299.97 3380.34,18 -18,18"/>
<text xml:space="preserve" text-anchor="middle" x="1681.17" y="-1258.97" font-family="Microsoft YaHei" font-size="20.00">hypothesis_13 C04｜长度 3</text>
<text xml:space="preserve" text-anchor="middle" x="1681.17" y="-1231.97" font-family="Microsoft YaHei" font-size="20.00">s0 → s6 → s1 → s0</text>
<text xml:space="preserve" text-anchor="middle" x="1681.17" y="-1204.97" font-family="Microsoft YaHei" font-size="20.00">彩色实线=本环SMP目标边；彩色虚线=原始H13补充闭环边；黑色=其余SMP边</text>
<!-- s0 -->
<g id="node1" class="node">
<title>s0</title>
<ellipse fill="#ffffff" stroke="#004d40" stroke-width="2.8" cx="2647.34" cy="-1072.64" rx="19.11" ry="19.11"/>
<text xml:space="preserve" text-anchor="middle" x="2647.34" y="-1069.49" font-family="Microsoft YaHei" font-size="12.00">s0</text>
</g>
<!-- s1 -->
<g id="node2" class="node">
<title>s1</title>
<ellipse fill="#ffffff" stroke="#004d40" stroke-width="2.8" cx="2115.34" cy="-959.68" rx="19.11" ry="19.11"/>
<text xml:space="preserve" text-anchor="middle" x="2115.34" y="-956.53" font-family="Microsoft YaHei" font-size="12.00">s1</text>
</g>
<!-- s0&#45;&gt;s1 -->
<g id="edge1" class="edge">
<title>s0&#45;&gt;s1</title>
<path fill="none" stroke="black" d="M2627.78,-1067.56C2547.13,-1050.74 2240.2,-986.72 2144.21,-966.7"/>
<polygon fill="black" stroke="black" points="2144.97,-964 2136.57,-965.1 2143.82,-969.48 2144.97,-964"/>
<text xml:space="preserve" text-anchor="middle" x="2492.54" y="-1013.99" font-family="Microsoft YaHei" font-size="9.00">registrationRequest / authenticationRequest</text>
</g>
<!-- s6 -->
<g id="node7" class="node">
<title>s6</title>
<ellipse fill="#ffffff" stroke="#004d40" stroke-width="2.8" cx="2729.34" cy="-19.11" rx="19.11" ry="19.11"/>
<text xml:space="preserve" text-anchor="middle" x="2729.34" y="-15.96" font-family="Microsoft YaHei" font-size="12.00">s6</text>
</g>
<!-- s0&#45;&gt;s6 -->
<g id="edge2" class="edge">
<title>s0&#45;&gt;s6</title>
<g id="a_edge2"><a xlink:title="C04">
<path fill="none" stroke="#004d40" stroke-width="4" d="M2667.55,-1071.82C2764.72,-1072.15 3179.34,-1067.29 3179.34,-960.68 3179.34,-960.68 3179.34,-960.68 3179.34,-135.68 3179.34,-49.86 2868.44,-26.86 2763.48,-21.54"/>
<polygon fill="#004d40" stroke="#004d40" stroke-width="4" points="2763.72,-18.75 2755.6,-21.16 2763.46,-24.34 2763.72,-18.75"/>
</a>
</g>
<text xml:space="preserve" text-anchor="middle" x="3270.84" y="-562.13" font-family="Microsoft YaHei" font-size="9.00" fill="#004d40">registrationRequestGUTI / identityRequest</text>
</g>
<!-- s1&#45;&gt;s0 -->
<g id="edge35" class="edge">
<title>s1&#45;&gt;s0</title>
<g id="a_edge35"><a xlink:title="C04 (closure)">
<path fill="none" stroke="#004d40" stroke-width="4" stroke-dasharray="5,2" d="M2135.65,-960.67C2216.73,-960.96 2516.75,-965.09 2598.34,-1009.79 2612.04,-1017.29 2623.25,-1030.38 2631.48,-1042.59"/>
<polygon fill="#004d40" stroke="#004d40" stroke-width="4" points="2628.93,-1043.78 2635.51,-1049.11 2633.69,-1040.83 2628.93,-1043.78"/>
</a>
</g>
<text xml:space="preserve" text-anchor="middle" x="2689.08" y="-1013.99" font-family="Microsoft YaHei" font-size="9.00" fill="#004d40">deregistrationRequest / null_action</text>
</g>
<!-- s3 -->
<g id="node4" class="node">
<title>s3</title>
<ellipse fill="none" stroke="#475569" stroke-width="1.4" cx="1910.34" cy="-846.71" rx="19.11" ry="19.11"/>
<text xml:space="preserve" text-anchor="middle" x="1910.34" y="-843.56" font-family="Microsoft YaHei" font-size="12.00">s3</text>
</g>
<!-- s1&#45;&gt;s3 -->
<g id="edge3" class="edge">
<title>s1&#45;&gt;s3</title>
<path fill="none" stroke="black" d="M2094.95,-957.98C2011.8,-954.93 1701.39,-941.46 1672.84,-909.57 1643.8,-877.13 1812.52,-857.06 1881.73,-850.29"/>
<polygon fill="black" stroke="black" points="1881.6,-853.11 1889.3,-849.56 1881.07,-847.54 1881.6,-853.11"/>
<text xml:space="preserve" text-anchor="middle" x="1781.59" y="-901.02" font-family="Microsoft YaHei" font-size="9.00">authenticationResponse / securityModeCommand</text>
</g>
<!-- s2 -->
<g id="node3" class="node">
<title>s2</title>
<ellipse fill="none" stroke="#475569" stroke-width="1.4" cx="2713.34" cy="-1173.86" rx="19.11" ry="19.11"/>
<text xml:space="preserve" text-anchor="middle" x="2713.34" y="-1170.71" font-family="Microsoft YaHei" font-size="12.00">s2</text>
</g>
<!-- s3&#45;&gt;s1 -->
<g id="edge4" class="edge">
<title>s3&#45;&gt;s1</title>
<path fill="none" stroke="black" d="M1915.24,-865.69C1919.93,-879.6 1928.36,-898.32 1942.09,-909.57 1983.94,-943.85 2048.37,-954.23 2085.73,-957.35"/>
<polygon fill="black" stroke="black" points="2085.37,-960.13 2093.56,-957.92 2085.78,-954.55 2085.37,-960.13"/>
<text xml:space="preserve" text-anchor="middle" x="2094.72" y="-901.02" font-family="Microsoft YaHei" font-size="9.00">registrationRequest | registrationRequestGUTI / authenticationRequest</text>
</g>
<!-- s4 -->
<g id="node5" class="node">
<title>s4</title>
<ellipse fill="none" stroke="#475569" stroke-width="1.4" cx="2185.34" cy="-733.75" rx="19.11" ry="19.11"/>
<text xml:space="preserve" text-anchor="middle" x="2185.34" y="-730.6" font-family="Microsoft YaHei" font-size="12.00">s4</text>
</g>
<!-- s3&#45;&gt;s4 -->
<g id="edge6" class="edge">
<title>s3&#45;&gt;s4</title>
<path fill="none" stroke="black" d="M1927.95,-838.11C1955.5,-826.26 2010.51,-802.79 2057.59,-783.86 2092.34,-769.88 2132.74,-754.5 2158.65,-744.74"/>
<polygon fill="black" stroke="black" points="2159.58,-747.38 2166.08,-741.94 2157.61,-742.13 2159.58,-747.38"/>
<text xml:space="preserve" text-anchor="middle" x="2152.47" y="-788.06" font-family="Microsoft YaHei" font-size="9.00">securityModeComplete / registrationAccept</text>
</g>
<!-- s7 -->
<g id="node8" class="node">
<title>s7</title>
<ellipse fill="none" stroke="#475569" stroke-width="1.4" cx="1462.34" cy="-733.75" rx="19.11" ry="19.11"/>
<text xml:space="preserve" text-anchor="middle" x="1462.34" y="-730.6" font-family="Microsoft YaHei" font-size="12.00">s7</text>
</g>
<!-- s3&#45;&gt;s7 -->
<g id="edge5" class="edge">
<title>s3&#45;&gt;s7</title>
<path fill="none" stroke="black" d="M1891.38,-841.02C1820.97,-823.58 1574.32,-762.48 1490.48,-741.72"/>
<polygon fill="black" stroke="black" points="1491.22,-739.02 1482.78,-739.81 1489.87,-744.45 1491.22,-739.02"/>
<text xml:space="preserve" text-anchor="middle" x="1769.9" y="-788.06" font-family="Microsoft YaHei" font-size="9.00">securityModeReject / null_action</text>
</g>
<!-- s4&#45;&gt;s1 -->
<g id="edge7" class="edge">
<title>s4&#45;&gt;s1</title>
<path fill="none" stroke="black" d="M2203.25,-741.75C2219.9,-749.34 2243.69,-763.21 2254.34,-783.86 2279.95,-833.51 2286.6,-863.95 2254.34,-909.57 2229.59,-944.56 2177.74,-954.79 2144.83,-957.68"/>
<polygon fill="black" stroke="black" points="2144.98,-954.86 2137.2,-958.22 2145.38,-960.44 2144.98,-954.86"/>
<text xml:space="preserve" text-anchor="middle" x="2382.24" y="-844.54" font-family="Microsoft YaHei" font-size="9.00">registrationRequestGUTI / authenticationRequest</text>
</g>
<!-- s5 -->
<g id="node6" class="node">
<title>s5</title>
<ellipse fill="none" stroke="#475569" stroke-width="1.4" cx="2019.34" cy="-620.78" rx="19.11" ry="19.11"/>
<text xml:space="preserve" text-anchor="middle" x="2019.34" y="-617.63" font-family="Microsoft YaHei" font-size="12.00">s5</text>
</g>
<!-- s4&#45;&gt;s5 -->
<g id="edge8" class="edge">
<title>s4&#45;&gt;s5</title>
<path fill="none" stroke="black" d="M2165.82,-732.61C2105.92,-731.75 1926.65,-725.63 1891.09,-683.64 1861.04,-648.15 1944.41,-631.42 1990.73,-625.04"/>
<polygon fill="black" stroke="black" points="1990.93,-627.84 1998.5,-624.03 1990.2,-622.28 1990.93,-627.84"/>
<text xml:space="preserve" text-anchor="middle" x="2009.22" y="-675.09" font-family="Microsoft YaHei" font-size="9.00">registrationComplete / configurationUpdateCommand</text>
</g>
<!-- s5&#45;&gt;s4 -->
<g id="edge9" class="edge">
<title>s5&#45;&gt;s4</title>
<path fill="none" stroke="black" d="M2037.87,-626.7C2061.84,-633.7 2104.1,-648.26 2134.34,-670.89 2148.37,-681.39 2160.93,-696.52 2170.08,-709.19"/>
<polygon fill="black" stroke="black" points="2167.57,-710.49 2174.45,-715.45 2172.17,-707.29 2167.57,-710.49"/>
<text xml:space="preserve" text-anchor="middle" x="2245" y="-675.09" font-family="Microsoft YaHei" font-size="9.00">registrationRequestGUTI / registrationAccept</text>
</g>
<!-- s12 -->
<g id="node13" class="node">
<title>s12</title>
<ellipse fill="none" stroke="#475569" stroke-width="1.4" cx="2019.34" cy="-503.21" rx="23.71" ry="23.71"/>
<text xml:space="preserve" text-anchor="middle" x="2019.34" y="-500.06" font-family="Microsoft YaHei" font-size="12.00">s12</text>
</g>
<!-- s5&#45;&gt;s12 -->
<g id="edge10" class="edge">
<title>s5&#45;&gt;s12</title>
<path fill="none" stroke="black" d="M2019.34,-601.21C2019.34,-583.92 2019.34,-557.75 2019.34,-536.95"/>
<polygon fill="black" stroke="black" points="2022.14,-537.04 2019.34,-529.04 2016.54,-537.04 2022.14,-537.04"/>
<text xml:space="preserve" text-anchor="middle" x="2094.72" y="-562.13" font-family="Microsoft YaHei" font-size="9.00">deregistrationRequest / null_action</text>
</g>
<!-- s6&#45;&gt;s1 -->
<g id="edge11" class="edge">
<title>s6&#45;&gt;s1</title>
<g id="a_edge11"><a xlink:title="C04">
<path fill="none" stroke="#004d40" stroke-width="4" d="M2747.69,-27.71C2765.1,-35.75 2790.98,-49.94 2807.34,-69.22 2828.08,-93.65 2835.34,-103.63 2835.34,-135.68 2835.34,-847.71 2835.34,-847.71 2835.34,-847.71 2835.34,-918.03 2292.03,-949.91 2149.33,-957.08"/>
<polygon fill="#004d40" stroke="#004d40" stroke-width="4" points="2149.63,-954.26 2141.78,-957.45 2149.9,-959.85 2149.63,-954.26"/>
</a>
</g>
<text xml:space="preserve" text-anchor="middle" x="2971.84" y="-501.04" font-family="Microsoft YaHei" font-size="9.00" fill="#004d40">registrationRequest | identityResponse / authenticationRequest</text>
</g>
<!-- s7&#45;&gt;s6 -->
<g id="edge13" class="edge">
<title>s7&#45;&gt;s6</title>
<path fill="none" stroke="black" d="M1481.45,-729.42C1544.26,-717.94 1740.34,-677.65 1740.34,-621.78 1740.34,-621.78 1740.34,-621.78 1740.34,-135.68 1740.34,-36.52 2534.81,-22.27 2699.63,-20.38"/>
<polygon fill="black" stroke="black" points="2699.65,-23.18 2707.62,-20.29 2699.59,-17.58 2699.65,-23.18"/>
<text xml:space="preserve" text-anchor="middle" x="1831.84" y="-378.86" font-family="Microsoft YaHei" font-size="9.00">registrationRequestGUTI / identityRequest</text>
</g>
<!-- s8 -->
<g id="node9" class="node">
<title>s8</title>
<ellipse fill="none" stroke="#475569" stroke-width="1.4" cx="1096.34" cy="-620.78" rx="19.11" ry="19.11"/>
<text xml:space="preserve" text-anchor="middle" x="1096.34" y="-617.63" font-family="Microsoft YaHei" font-size="12.00">s8</text>
</g>
<!-- s7&#45;&gt;s8 -->
<g id="edge12" class="edge">
<title>s7&#45;&gt;s8</title>
<path fill="none" stroke="black" d="M1442.94,-731.28C1399.1,-727.5 1289.51,-715.39 1203.84,-683.64 1173,-672.21 1140.7,-652.4 1119.65,-638.28"/>
<polygon fill="black" stroke="black" points="1121.34,-636.04 1113.15,-633.84 1118.18,-640.66 1121.34,-636.04"/>
<text xml:space="preserve" text-anchor="middle" x="1299.09" y="-675.09" font-family="Microsoft YaHei" font-size="9.00">registrationRequest / authenticationRequest</text>
</g>
<!-- s8&#45;&gt;s1 -->
<g id="edge14" class="edge">
<title>s8&#45;&gt;s1</title>
<path fill="none" stroke="black" d="M1077.15,-623.05C926.24,-633.19 -61.84,-703.34 3.09,-796.61 85.74,-915.33 166.31,-882.14 308.34,-909.57 489.66,-944.59 1865.2,-956.73 2085.59,-958.45"/>
<polygon fill="black" stroke="black" points="2085.39,-961.25 2093.42,-958.52 2085.44,-955.65 2085.39,-961.25"/>
<text xml:space="preserve" text-anchor="middle" x="155.72" y="-788.06" font-family="Microsoft YaHei" font-size="9.00">registrationRequest | registrationRequestGUTI / authenticationRequest</text>
</g>
<!-- s9 -->
<g id="node10" class="node">
<title>s9</title>
<ellipse fill="none" stroke="#475569" stroke-width="1.4" cx="1096.34" cy="-503.21" rx="19.11" ry="19.11"/>
<text xml:space="preserve" text-anchor="middle" x="1096.34" y="-500.06" font-family="Microsoft YaHei" font-size="12.00">s9</text>
</g>
<!-- s8&#45;&gt;s9 -->
<g id="edge15" class="edge">
<title>s8&#45;&gt;s9</title>
<path fill="none" stroke="black" d="M1096.34,-601.21C1096.34,-582.51 1096.34,-553.43 1096.34,-531.99"/>
<polygon fill="black" stroke="black" points="1099.14,-532.25 1096.34,-524.25 1093.54,-532.25 1099.14,-532.25"/>
<text xml:space="preserve" text-anchor="middle" x="1205.09" y="-562.13" font-family="Microsoft YaHei" font-size="9.00">authenticationResponse / securityModeCommand</text>
</g>
<!-- s9&#45;&gt;s7 -->
<g id="edge18" class="edge">
<title>s9&#45;&gt;s7</title>
<path fill="none" stroke="black" d="M1116,-504.59C1157.67,-506.24 1256.59,-514.79 1324.34,-557.93 1384.23,-596.06 1429.2,-669.42 1449.84,-707.87"/>
<polygon fill="black" stroke="black" points="1447.2,-708.85 1453.4,-714.62 1452.15,-706.24 1447.2,-708.85"/>
<text xml:space="preserve" text-anchor="middle" x="1477.23" y="-618.61" font-family="Microsoft YaHei" font-size="9.00">securityModeReject / null_action</text>
</g>
<!-- s10 -->
<g id="node11" class="node">
<title>s10</title>
<ellipse fill="none" stroke="#475569" stroke-width="1.4" cx="1190.34" cy="-258.86" rx="23.71" ry="23.71"/>
<text xml:space="preserve" text-anchor="middle" x="1190.34" y="-255.71" font-family="Microsoft YaHei" font-size="12.00">s10</text>
</g>
<!-- s9&#45;&gt;s10 -->
<g id="edge16" class="edge">
<title>s9&#45;&gt;s10</title>
<path fill="none" stroke="black" d="M1114.45,-495.59C1160.92,-477.38 1282.86,-421.46 1313.34,-326.32 1326.26,-285.98 1264.41,-269.75 1223.72,-263.51"/>
<polygon fill="black" stroke="black" points="1224.21,-260.75 1215.89,-262.41 1223.43,-266.3 1224.21,-260.75"/>
<text xml:space="preserve" text-anchor="middle" x="1450.69" y="-378.86" font-family="Microsoft YaHei" font-size="9.00">registrationRequest | registrationRequestGUTI / authenticationRequest</text>
</g>
<!-- s11 -->
<g id="node12" class="node">
<title>s11</title>
<ellipse fill="none" stroke="#475569" stroke-width="1.4" cx="849.34" cy="-381.03" rx="23.71" ry="23.71"/>
<text xml:space="preserve" text-anchor="middle" x="849.34" y="-377.88" font-family="Microsoft YaHei" font-size="12.00">s11</text>
</g>
<!-- s9&#45;&gt;s11 -->
<g id="edge17" class="edge">
<title>s9&#45;&gt;s11</title>
<path fill="none" stroke="black" d="M1076.89,-501.13C1022.89,-497.68 873.09,-484.93 843.59,-448.5 835.57,-438.6 835.51,-424.94 838.04,-412.58"/>
<polygon fill="black" stroke="black" points="840.72,-413.37 840.01,-404.93 835.3,-411.97 840.72,-413.37"/>
<text xml:space="preserve" text-anchor="middle" x="918.97" y="-439.95" font-family="Microsoft YaHei" font-size="9.00">deregistrationRequest / null_action</text>
</g>
<!-- s10&#45;&gt;s9 -->
<g id="edge20" class="edge">
<title>s10&#45;&gt;s9</title>
<path fill="none" stroke="black" d="M1210.98,-271.89C1231.63,-285.41 1258.2,-307.89 1242.34,-326.32 1182.1,-396.34 1097.09,-287.31 1036.84,-357.32 1004.49,-394.91 1048.43,-452.48 1076.38,-482.48"/>
<polygon fill="black" stroke="black" points="1074.15,-484.2 1081.7,-488.05 1078.2,-480.33 1074.15,-484.2"/>
<text xml:space="preserve" text-anchor="middle" x="1145.59" y="-378.86" font-family="Microsoft YaHei" font-size="9.00">authenticationResponse / securityModeCommand</text>
</g>
<!-- s10&#45;&gt;s11 -->
<g id="edge19" class="edge">
<title>s10&#45;&gt;s11</title>
<path fill="none" stroke="black" d="M1169.35,-271.2C1142.24,-285.52 1093.3,-310.2 1049.34,-326.32 991.81,-347.42 922.23,-364.23 882.14,-373.11"/>
<polygon fill="black" stroke="black" points="881.55,-370.38 874.33,-374.82 882.75,-375.85 881.55,-370.38"/>
<text xml:space="preserve" text-anchor="middle" x="1156.42" y="-317.77" font-family="Microsoft YaHei" font-size="9.00">deregistrationRequest / null_action</text>
</g>
<!-- s11&#45;&gt;s10 -->
<g id="edge21" class="edge">
<title>s11&#45;&gt;s10</title>
<path fill="none" stroke="black" d="M841.93,-357.78C838.7,-343.51 837.64,-325.5 847.84,-313.57 887.42,-267.3 1078.41,-260.62 1156.73,-259.85"/>
<polygon fill="black" stroke="black" points="1156.65,-262.65 1164.62,-259.79 1156.6,-257.05 1156.65,-262.65"/>
<text xml:space="preserve" text-anchor="middle" x="943.09" y="-317.77" font-family="Microsoft YaHei" font-size="9.00">registrationRequest / authenticationRequest</text>
</g>
<!-- s16 -->
<g id="node17" class="node">
<title>s16</title>
<ellipse fill="none" stroke="#475569" stroke-width="1.4" cx="419.34" cy="-258.86" rx="23.71" ry="23.71"/>
<text xml:space="preserve" text-anchor="middle" x="419.34" y="-255.71" font-family="Microsoft YaHei" font-size="12.00">s16</text>
</g>
<!-- s11&#45;&gt;s16 -->
<g id="edge22" class="edge">
<title>s11&#45;&gt;s16</title>
<path fill="none" stroke="black" d="M825.19,-378.89C737.68,-374.51 440.88,-357.46 413.34,-326.32 404.76,-316.61 404.82,-302.7 407.61,-290.11"/>
<polygon fill="black" stroke="black" points="410.22,-291.17 409.64,-282.72 404.82,-289.69 410.22,-291.17"/>
<text xml:space="preserve" text-anchor="middle" x="504.84" y="-317.77" font-family="Microsoft YaHei" font-size="9.00">registrationRequestGUTI / identityRequest</text>
</g>
<!-- s13 -->
<g id="node14" class="node">
<title>s13</title>
<ellipse fill="none" stroke="#475569" stroke-width="1.4" cx="2007.34" cy="-381.03" rx="23.71" ry="23.71"/>
<text xml:space="preserve" text-anchor="middle" x="2007.34" y="-377.88" font-family="Microsoft YaHei" font-size="12.00">s13</text>
</g>
<!-- s12&#45;&gt;s13 -->
<g id="edge23" class="edge">
<title>s12&#45;&gt;s13</title>
<path fill="none" stroke="black" d="M2016.51,-479.23C2015.39,-469.72 2014.11,-458.59 2013.09,-448.5 2011.96,-437.36 2010.86,-425.15 2009.94,-414.28"/>
<polygon fill="black" stroke="black" points="2012.75,-414.37 2009.3,-406.63 2007.17,-414.83 2012.75,-414.37"/>
<text xml:space="preserve" text-anchor="middle" x="2165.72" y="-439.95" font-family="Microsoft YaHei" font-size="9.00">registrationRequest | registrationRequestGUTI / authenticationRequest</text>
</g>
<!-- s13&#45;&gt;s12 -->
<g id="edge24" class="edge">
<title>s13&#45;&gt;s12</title>
<path fill="none" stroke="black" d="M1984.6,-389.06C1942.12,-402.3 1854.64,-430.09 1850.59,-435.75 1847.3,-440.36 1847.25,-443.92 1850.59,-448.5 1881.52,-490.8 1946.07,-500.58 1985.76,-502.4"/>
<polygon fill="black" stroke="black" points="1985.44,-505.19 1993.52,-502.65 1985.62,-499.59 1985.44,-505.19"/>
<text xml:space="preserve" text-anchor="middle" x="1925.97" y="-439.95" font-family="Microsoft YaHei" font-size="9.00">deregistrationRequest / null_action</text>
</g>
<!-- s14 -->
<g id="node15" class="node">
<title>s14</title>
<ellipse fill="none" stroke="#475569" stroke-width="1.4" cx="2420.34" cy="-258.86" rx="23.71" ry="23.71"/>
<text xml:space="preserve" text-anchor="middle" x="2420.34" y="-255.71" font-family="Microsoft YaHei" font-size="12.00">s14</text>
</g>
<!-- s13&#45;&gt;s14 -->
<g id="edge25" class="edge">
<title>s13&#45;&gt;s14</title>
<path fill="none" stroke="black" d="M1984.75,-372.65C1970.38,-368.04 1951.34,-362.09 1934.34,-357.32 1878.28,-341.58 1771.51,-356.52 1810.84,-313.57 1849.96,-270.86 2264.79,-261.94 2386.78,-260.23"/>
<polygon fill="black" stroke="black" points="2386.56,-263.03 2394.52,-260.13 2386.48,-257.43 2386.56,-263.03"/>
<text xml:space="preserve" text-anchor="middle" x="1919.59" y="-317.77" font-family="Microsoft YaHei" font-size="9.00">authenticationResponse / securityModeCommand</text>
</g>
<!-- s14&#45;&gt;s4 -->
<g id="edge29" class="edge">
<title>s14&#45;&gt;s4</title>
<path fill="none" stroke="black" d="M2441.66,-270.3C2483.7,-292.42 2570.82,-346.75 2542.34,-404.75 2518.39,-453.52 2479.28,-436.86 2445.59,-479.5 2383.86,-557.62 2428.5,-618.34 2353.34,-683.64 2313.54,-718.22 2250.53,-728.48 2214.04,-731.51"/>
<polygon fill="black" stroke="black" points="2214.22,-728.69 2206.44,-732.05 2214.62,-734.27 2214.22,-728.69"/>
<text xml:space="preserve" text-anchor="middle" x="2540.47" y="-501.04" font-family="Microsoft YaHei" font-size="9.00">securityModeComplete / registrationAccept</text>
</g>
<!-- s14&#45;&gt;s12 -->
<g id="edge27" class="edge">
<title>s14&#45;&gt;s12</title>
<path fill="none" stroke="black" d="M2412.34,-281.6C2395.34,-326.58 2354.78,-427.41 2325.34,-448.5 2281.89,-479.62 2122.33,-494.74 2052.47,-499.99"/>
<polygon fill="black" stroke="black" points="2052.51,-497.18 2044.74,-500.56 2052.92,-502.77 2052.51,-497.18"/>
<text xml:space="preserve" text-anchor="middle" x="2456.03" y="-378.86" font-family="Microsoft YaHei" font-size="9.00">deregistrationRequest / null_action</text>
</g>
<!-- s14&#45;&gt;s13 -->
<g id="edge26" class="edge">
<title>s14&#45;&gt;s13</title>
<path fill="none" stroke="black" d="M2396.27,-259.03C2338.6,-258.02 2189.22,-261.07 2080.09,-313.57 2059.95,-323.26 2041.42,-340.36 2028.11,-354.8"/>
<polygon fill="black" stroke="black" points="2026.26,-352.66 2023.01,-360.49 2030.43,-356.4 2026.26,-352.66"/>
<text xml:space="preserve" text-anchor="middle" x="2232.72" y="-317.77" font-family="Microsoft YaHei" font-size="9.00">registrationRequest | registrationRequestGUTI / authenticationRequest</text>
</g>
<!-- s15 -->
<g id="node16" class="node">
<title>s15</title>
<ellipse fill="none" stroke="#475569" stroke-width="1.4" cx="2623.34" cy="-136.68" rx="23.71" ry="23.71"/>
<text xml:space="preserve" text-anchor="middle" x="2623.34" y="-133.53" font-family="Microsoft YaHei" font-size="12.00">s15</text>
</g>
<!-- s14&#45;&gt;s15 -->
<g id="edge28" class="edge">
<title>s14&#45;&gt;s15</title>
<path fill="none" stroke="black" d="M2436.27,-240.82C2450.59,-226.25 2472.75,-205.45 2495.09,-191.39 2525.79,-172.07 2564.65,-156.92 2591.5,-147.71"/>
<polygon fill="black" stroke="black" points="2592.33,-150.38 2599.03,-145.18 2590.55,-145.07 2592.33,-150.38"/>
<text xml:space="preserve" text-anchor="middle" x="2565.22" y="-195.59" font-family="Microsoft YaHei" font-size="9.00">securityModeReject / null_action</text>
</g>
<!-- s15&#45;&gt;s1 -->
<g id="edge30" class="edge">
<title>s15&#45;&gt;s1</title>
<path fill="none" stroke="black" d="M2636.18,-157.18C2650.1,-180.22 2670.34,-220.22 2670.34,-257.86 2670.34,-443.12 2670.34,-443.12 2670.34,-443.12 2670.34,-482.39 2663.39,-493.77 2642.34,-526.93 2631.64,-543.78 2617.7,-539.57 2609.84,-557.93 2598.98,-583.3 2615.34,-592.18 2615.34,-619.78 2615.34,-847.71 2615.34,-847.71 2615.34,-847.71 2615.34,-944.72 2252.13,-956.97 2144.84,-958.48"/>
<polygon fill="black" stroke="black" points="2145.04,-955.68 2137.07,-958.57 2145.11,-961.28 2145.04,-955.68"/>
<text xml:space="preserve" text-anchor="middle" x="2705.09" y="-562.13" font-family="Microsoft YaHei" font-size="9.00">registrationRequest / authenticationRequest</text>
</g>
<!-- s15&#45;&gt;s6 -->
<g id="edge31" class="edge">
<title>s15&#45;&gt;s6</title>
<path fill="none" stroke="black" d="M2614.85,-113.95C2610.92,-100.08 2608.78,-82.31 2617.34,-69.22 2635.55,-41.36 2673.45,-29.2 2700.1,-23.97"/>
<polygon fill="black" stroke="black" points="2700.47,-26.74 2707.86,-22.6 2699.5,-21.23 2700.47,-26.74"/>
<text xml:space="preserve" text-anchor="middle" x="2708.84" y="-73.42" font-family="Microsoft YaHei" font-size="9.00">registrationRequestGUTI / identityRequest</text>
</g>
<!-- s16&#45;&gt;s1 -->
<g id="edge32" class="edge">
<title>s16&#45;&gt;s1</title>
<path fill="none" stroke="black" d="M401.71,-275C379.26,-296.08 343.34,-336.59 343.34,-380.03 343.34,-847.71 343.34,-847.71 343.34,-847.71 343.34,-938.78 1853.89,-956.28 2085.66,-958.43"/>
<polygon fill="black" stroke="black" points="2085.6,-961.23 2093.62,-958.5 2085.65,-955.63 2085.6,-961.23"/>
<text xml:space="preserve" text-anchor="middle" x="479.84" y="-618.61" font-family="Microsoft YaHei" font-size="9.00">registrationRequest | identityResponse / authenticationRequest</text>
</g>
<!-- s16&#45;&gt;s11 -->
<g id="edge33" class="edge">
<title>s16&#45;&gt;s11</title>
<path fill="none" stroke="black" d="M442.57,-266.35C514.62,-286.49 734.4,-347.91 817.27,-371.07"/>
<polygon fill="black" stroke="black" points="816.31,-373.71 824.76,-373.17 817.81,-368.32 816.31,-373.71"/>
<text xml:space="preserve" text-anchor="middle" x="722.61" y="-317.77" font-family="Microsoft YaHei" font-size="9.00">deregistrationRequest / null_action</text>
</g>
<!-- __start0 -->
<g id="node18" class="node">
<title>__start0</title>
</g>
<!-- __start0&#45;&gt;s0 -->
<g id="edge34" class="edge">
<title>__start0&#45;&gt;s0</title>
<path fill="none" stroke="black" d="M2647.34,-1172.79C2647.34,-1170.86 2647.34,-1130.51 2647.34,-1101.89"/>
<polygon fill="black" stroke="black" points="2650.14,-1102.22 2647.34,-1094.22 2644.54,-1102.22 2650.14,-1102.22"/>
</g>
</g>
</svg>
