<?xml version="1.0" encoding="UTF-8" standalone="no"?>
<svg
   width="3011pt"
   height="1075pt"
   viewBox="0.00 0.00 3011.00 1075.00"
   version="1.1"
   id="svg60"
   sodipodi:docname="edge-categories-mark.svg"
   inkscape:version="1.4.4 (dcaf3e7, 2026-05-05)"
   xmlns:inkscape="http://www.inkscape.org/namespaces/inkscape"
   xmlns:sodipodi="http://sodipodi.sourceforge.net/DTD/sodipodi-0.dtd"
   xmlns="http://www.w3.org/2000/svg"
   xmlns:svg="http://www.w3.org/2000/svg">
  <defs
     id="defs60" />
  <sodipodi:namedview
     id="namedview60"
     pagecolor="#ffffff"
     bordercolor="#000000"
     borderopacity="0.25"
     inkscape:showpageshadow="2"
     inkscape:pageopacity="0.0"
     inkscape:pagecheckerboard="0"
     inkscape:deskcolor="#d1d1d1"
     inkscape:document-units="pt"
     inkscape:zoom="1.6964927"
     inkscape:cx="2064.8483"
     inkscape:cy="461.24573"
     inkscape:window-width="2560"
     inkscape:window-height="1346"
     inkscape:window-x="-11"
     inkscape:window-y="-11"
     inkscape:window-maximized="1"
     inkscape:current-layer="svg60" />
  <g
     id="graph0"
     class="graph"
     transform="scale(1 1) rotate(0) translate(4 1070.64)">
    <title
       id="title1">g</title>
    <polygon
       fill="white"
       stroke="none"
       points="-4,4 -4,-1070.64 3006.86,-1070.64 3006.86,4 -4,4"
       id="polygon1" />
    <g
       id="node1"
       class="node">
      <title
         id="title2">s0</title>
      <ellipse
         fill="none"
         stroke="black"
         cx="19.11"
         cy="-972.32"
         rx="19.11"
         ry="19.11"
         id="ellipse2" />
      <text
         xml:space="preserve"
         text-anchor="middle"
         x="19.11"
         y="-967.27"
         font-family="Times New Roman,serif"
         font-size="14.00"
         id="text2">s0</text>
    </g>
    <g
       id="node2"
       class="node">
      <title
         id="title3">s1</title>
      <ellipse
         fill="none"
         stroke="black"
         cx="938.11"
         cy="-881.61"
         rx="19.11"
         ry="19.11"
         id="ellipse3" />
      <text
         xml:space="preserve"
         text-anchor="middle"
         x="938.11"
         y="-876.56"
         font-family="Times New Roman,serif"
         font-size="14.00"
         id="text3">s1</text>
    </g>
    <g
       id="edge1"
       class="edge"
       data-register-inference-categories="terminal_observable"
       data-register-inference-edge-ids="E0001">
      <title
         id="title4">s0-&gt;s1</title>
      <path
         fill="none"
         stroke="#7570B3"
         d="M38.3,-969.47C154.51,-958.25 763.79,-899.43 907.65,-885.55"
         stroke-width="3.4"
         id="path4" />
      <polygon
         fill="#7570B3"
         stroke="#7570B3"
         points="907.89,-889.04 917.51,-884.59 907.22,-882.07 907.89,-889.04"
         id="polygon4" />
      <text
         xml:space="preserve"
         text-anchor="middle"
         x="679.05"
         y="-921.91"
         font-family="Times New Roman,serif"
         font-size="14.00"
         fill="#7570B3"
         id="text4">registrationRequest / authenticationRequest</text>
    </g>
    <g
       id="node7"
       class="node">
      <title
         id="title5">s6</title>
      <ellipse
         fill="none"
         stroke="black"
         cx="1019.11"
         cy="-19.11"
         rx="19.11"
         ry="19.11"
         id="ellipse5" />
      <text
         xml:space="preserve"
         text-anchor="middle"
         x="1019.11"
         y="-14.06"
         font-family="Times New Roman,serif"
         font-size="14.00"
         id="text5">s6</text>
    </g>
    <g
       id="edge2"
       class="edge"
       data-register-inference-categories="backward_pair"
       data-register-inference-edge-ids="E0002">
      <title
         id="title6">s0-&gt;s6</title>
      <path
         fill="none"
         stroke="#E7298A"
         d="M13.96,-953.48C9.28,-935.69 3.11,-907.49 3.11,-882.61 3.11,-882.61 3.11,-882.61 3.11,-113.43 3.11,-62.64 818.78,-27.94 988.43,-21.28"
         stroke-width="3.4"
         id="path6" />
      <polygon
         fill="#E7298A"
         stroke="#E7298A"
         points="988.35,-24.78 998.21,-20.9 988.08,-17.79 988.35,-24.78"
         id="polygon6" />
      <text
         xml:space="preserve"
         text-anchor="middle"
         x="119.73"
         y="-509.09"
         font-family="Times New Roman,serif"
         font-size="14.00"
         fill="#E7298A"
         id="text6">registrationRequestGUTI / identityRequest</text>
    </g>
    <g
       id="node4"
       class="node">
      <title
         id="title7">s3</title>
      <ellipse
         fill="none"
         stroke="black"
         cx="1086.11"
         cy="-790.89"
         rx="19.11"
         ry="19.11"
         id="ellipse7" />
      <text
         xml:space="preserve"
         text-anchor="middle"
         x="1086.11"
         y="-785.84"
         font-family="Times New Roman,serif"
         font-size="14.00"
         id="text7">s3</text>
    </g>
    <g
       id="edge3"
       class="edge"
       data-register-inference-categories="relatively_stable"
       data-register-inference-edge-ids="E0019">
      <title
         id="title8">s1-&gt;s3</title>
      <path
         fill="none"
         stroke="#1B9E77"
         d="M957.49,-879.75C1000.08,-877.43 1099.67,-869.39 1120.11,-844.5 1128.91,-833.78 1120.51,-820.69 1109.86,-810.25"
         stroke-width="3.4"
         id="path8" />
      <polygon
         fill="#1B9E77"
         stroke="#1B9E77"
         points="1112.46,-807.88 1102.66,-803.87 1107.82,-813.12 1112.46,-807.88"
         id="polygon8" />
      <text
         xml:space="preserve"
         text-anchor="middle"
         x="1259.91"
         y="-831.2"
         font-family="Times New Roman,serif"
         font-size="14.00"
         fill="#1B9E77"
         id="text8">authenticationResponse / securityModeCommand</text>
    </g>
    <g
       id="node3"
       class="node">
      <title
         id="title9">s2</title>
      <ellipse
         fill="none"
         stroke="black"
         cx="56.11"
         cy="-1047.54"
         rx="19.11"
         ry="19.11"
         id="ellipse9" />
      <text
         xml:space="preserve"
         text-anchor="middle"
         x="56.11"
         y="-1042.49"
         font-family="Times New Roman,serif"
         font-size="14.00"
         id="text9">s2</text>
    </g>
    <g
       id="edge4"
       class="edge"
       data-register-inference-categories="relatively_stable"
       data-register-inference-edge-ids="E0037,E0038">
      <title
         id="title10">s3-&gt;s1</title>
      <path
         fill="none"
         stroke="#1B9E77"
         d="M1067,-792.38C996.62,-794.36 754.73,-802.95 732.11,-828 727.19,-833.44 727.39,-838.88 732.11,-844.5 754.11,-870.69 855.29,-877.89 907.2,-879.86"
         stroke-width="3.4"
         id="path10" />
      <polygon
         fill="#1B9E77"
         stroke="#1B9E77"
         points="907.04,-883.36 917.16,-880.19 907.28,-876.36 907.04,-883.36"
         id="polygon10" />
      <text
         xml:space="preserve"
         text-anchor="middle"
         x="924.11"
         y="-831.2"
         font-family="Times New Roman,serif"
         font-size="14.00"
         fill="#1B9E77"
         id="text10">registrationRequest | registrationRequestGUTI / authenticationRequest</text>
    </g>
    <g
       id="node5"
       class="node">
      <title
         id="title11">s4</title>
      <ellipse
         fill="none"
         stroke="black"
         cx="1536.11"
         cy="-700.18"
         rx="19.11"
         ry="19.11"
         id="ellipse11" />
      <text
         xml:space="preserve"
         text-anchor="middle"
         x="1536.11"
         y="-695.13"
         font-family="Times New Roman,serif"
         font-size="14.00"
         id="text11">s4</text>
    </g>
    <g
       id="edge6"
       class="edge"
       data-register-inference-categories="predecessor_minimal"
       data-register-inference-edge-ids="E0046">
      <title
         id="title12">s3-&gt;s4</title>
      <path
         fill="none"
         stroke="#D95F02"
         d="m 1104.35,-784.79 c 24.84,6.95 70.69,19.82 109.76,31.01 25.25,7.23 31.05,11.04 56.75,16.5 84.21,17.87 185.42,28.78 234.95,33.45"
         stroke-width="3.4"
         id="path12"
         style="stroke:#008080"
         sodipodi:nodetypes="cccc" />
      <polygon
         fill="#D95F02"
         stroke="#D95F02"
         points="1505.82,-707.34 1515.46,-702.94 1505.18,-700.37 1505.82,-707.34"
         id="polygon12"
         style="stroke:#008080;fill:#008080" />
      <text
         xml:space="preserve"
         text-anchor="middle"
         x="1390.48"
         y="-740.48"
         font-family="Times New Roman,serif"
         font-size="14.00"
         fill="#D95F02"
         id="text12">securityModeComplete / registrationAccept</text>
    </g>
    <g
       id="node8"
       class="node">
      <title
         id="title13">s7</title>
      <ellipse
         fill="none"
         stroke="black"
         cx="813.11"
         cy="-700.18"
         rx="19.11"
         ry="19.11"
         id="ellipse13" />
      <text
         xml:space="preserve"
         text-anchor="middle"
         x="813.11"
         y="-695.13"
         font-family="Times New Roman,serif"
         font-size="14.00"
         id="text13">s7</text>
    </g>
    <g
       id="edge5"
       class="edge"
       data-register-inference-categories="predecessor_minimal"
       data-register-inference-edge-ids="E0042">
      <title
         id="title14">s3-&gt;s7</title>
      <path
         fill="none"
         stroke="#D95F02"
         d="M1070.79,-778.91C1053.3,-766.91 1023.46,-747.95 995.11,-737.28 943.91,-718.01 880.56,-708.42 843.7,-704.15"
         stroke-width="3.4"
         id="path14" />
      <polygon
         fill="#D95F02"
         stroke="#D95F02"
         points="844.1,-700.67 833.78,-703.06 843.34,-707.63 844.1,-700.67"
         id="polygon14" />
      <text
         xml:space="preserve"
         text-anchor="middle"
         x="1119.79"
         y="-740.48"
         font-family="Times New Roman,serif"
         font-size="14.00"
         fill="#D95F02"
         id="text14">securityModeReject / null_action</text>
    </g>
    <g
       id="edge7"
       class="edge"
       data-register-inference-categories="terminal_observable"
       data-register-inference-edge-ids="E0050">
      <title
         id="title15">s4-&gt;s1</title>
      <path
         fill="none"
         stroke="#7570B3"
         d="M1529.8,-718.34C1525.31,-729.17 1518.59,-743.08 1510.11,-753.78 1470.75,-803.45 1458.87,-820.77 1400.11,-844.5 1321.48,-876.25 1059.06,-880.19 968.86,-880.6"
         stroke-width="3.4"
         id="path15" />
      <polygon
         fill="#7570B3"
         stroke="#7570B3"
         points="969.05,-877.09 959.06,-880.63 969.08,-884.09 969.05,-877.09"
         id="polygon15" />
      <text
         xml:space="preserve"
         text-anchor="middle"
         x="1629.9"
         y="-785.84"
         font-family="Times New Roman,serif"
         font-size="14.00"
         fill="#7570B3"
         id="text15">registrationRequestGUTI / authenticationRequest</text>
    </g>
    <g
       id="node6"
       class="node">
      <title
         id="title16">s5</title>
      <ellipse
         fill="none"
         stroke="black"
         cx="1888.11"
         cy="-609.46"
         rx="19.11"
         ry="19.11"
         id="ellipse16" />
      <text
         xml:space="preserve"
         text-anchor="middle"
         x="1888.11"
         y="-604.41"
         font-family="Times New Roman,serif"
         font-size="14.00"
         id="text16">s5</text>
    </g>
    <g
       id="edge8"
       class="edge"
       data-register-inference-categories="predecessor_minimal"
       data-register-inference-edge-ids="E0051">
      <title
         id="title17">s4-&gt;s5</title>
      <path
         fill="none"
         stroke="#D95F02"
         d="M1542.8,-681.75C1548.36,-669.78 1557.49,-654.64 1570.61,-646.57 1618.18,-617.28 1787.42,-611.73 1857.44,-610.69"
         stroke-width="3.4"
         id="path17"
         style="fill:none;stroke:#008080;stroke-width:3.4" />
      <polygon
         fill="#D95F02"
         stroke="#D95F02"
         points="1857.46,-614.19 1867.42,-610.57 1857.37,-607.19 1857.46,-614.19"
         id="polygon17" />
      <text
         xml:space="preserve"
         text-anchor="middle"
         x="1718.36"
         y="-649.77"
         font-family="Times New Roman,serif"
         font-size="14.00"
         fill="#D95F02"
         id="text17">registrationComplete / configurationUpdateCommand</text>
    </g>
    <g
       id="edge9"
       class="edge"
       data-register-inference-categories="predecessor_minimal"
       data-register-inference-edge-ids="E0062">
      <title
         id="title18">s5-&gt;s4</title>
      <path
         fill="none"
         stroke="#D95F02"
         d="M1885.31,-628.73C1882.51,-640.45 1876.97,-654.95 1866.11,-663.07 1819.3,-698.05 1639.61,-700.27 1566.91,-699.68"
         stroke-width="3.4"
         id="path18" />
      <polygon
         fill="#D95F02"
         stroke="#D95F02"
         points="1566.96,-696.18 1556.92,-699.57 1566.88,-703.18 1566.96,-696.18"
         id="polygon18" />
      <text
         xml:space="preserve"
         text-anchor="middle"
         x="2002.59"
         y="-649.77"
         font-family="Times New Roman,serif"
         font-size="14.00"
         fill="#D95F02"
         id="text18">registrationRequestGUTI / registrationAccept</text>
    </g>
    <g
       id="node13"
       class="node">
      <title
         id="title19">s12</title>
      <ellipse
         fill="none"
         stroke="black"
         cx="1932.11"
         cy="-514.14"
         rx="23.71"
         ry="23.71"
         id="ellipse19" />
      <text
         xml:space="preserve"
         text-anchor="middle"
         x="1932.11"
         y="-509.09"
         font-family="Times New Roman,serif"
         font-size="14.00"
         id="text19">s12</text>
    </g>
    <g
       id="edge10"
       class="edge"
       data-register-inference-categories="predecessor_minimal"
       data-register-inference-edge-ids="E0064">
      <title
         id="title20">s5-&gt;s12</title>
      <path
         fill="none"
         stroke="#D95F02"
         d="M1895.97,-591.78C1901.96,-579.08 1910.36,-561.26 1917.56,-545.99"
         stroke-width="3.4"
         id="path20" />
      <polygon
         fill="#D95F02"
         stroke="#D95F02"
         points="1920.56,-547.83 1921.66,-537.29 1914.23,-544.85 1920.56,-547.83"
         id="polygon20" />
      <text
         xml:space="preserve"
         text-anchor="middle"
         x="2007.62"
         y="-559.05"
         font-family="Times New Roman,serif"
         font-size="14.00"
         fill="#D95F02"
         id="text20">deregistrationRequest / null_action</text>
    </g>
    <g
       id="edge11"
       class="edge"
       data-register-inference-categories="backward_pair,terminal_observable"
       data-register-inference-edge-ids="E0073,E0083">
      <title
         id="title21">s6-&gt;s1</title>
      <path
         fill="none"
         stroke="#7570B3"
         stroke-width="7.2"
         stroke-dasharray="10,5"
         stroke-linecap="round"
         d="M1038.43,-20.15C1222.7,-20.71 2663.11,-27.8 2663.11,-113.43 2663.11,-791.89 2663.11,-791.89 2663.11,-791.89 2663.11,-880.27 1199.83,-881.11 968.69,-880.69"
         id="path21" />
      <path
         fill="none"
         stroke="#E7298A"
         d="M1038.43,-20.15C1222.7,-20.71 2663.11,-27.8 2663.11,-113.43 2663.11,-791.89 2663.11,-791.89 2663.11,-791.89 2663.11,-880.27 1199.83,-881.11 968.69,-880.69"
         stroke-width="3.4"
         id="path22" />
      <polygon
         fill="#E7298A"
         stroke="#E7298A"
         points="969,-877.19 958.99,-880.67 968.99,-884.19 969,-877.19"
         id="polygon22" />
      <text
         xml:space="preserve"
         text-anchor="middle"
         x="2832.98"
         y="-459.13"
         font-family="Times New Roman,serif"
         font-size="14.00"
         fill="#E7298A"
         id="text22">registrationRequest | identityResponse / authenticationRequest</text>
    </g>
    <g
       id="edge13"
       class="edge"
       data-register-inference-categories="predecessor_minimal"
       data-register-inference-edge-ids="E0086">
      <title
         id="title22">s7-&gt;s6</title>
      <path
         fill="none"
         stroke="#D95F02"
         d="M794.2,-696.28C769.16,-691.86 724.19,-681.91 690.11,-663.07 647.48,-639.51 646.05,-620.9 608.11,-590.35 464.38,-474.62 297.11,-499.81 297.11,-315.28 297.11,-315.28 297.11,-315.28 297.11,-113.43 297.11,-42.58 851.04,-24.25 988.51,-20.79"
         stroke-width="3.4"
         id="path23" />
      <polygon
         fill="#D95F02"
         stroke="#D95F02"
         points="988.37,-24.29 998.28,-20.55 988.2,-17.3 988.37,-24.29"
         id="polygon23" />
      <text
         xml:space="preserve"
         text-anchor="middle"
         x="420.37"
         y="-359.2"
         font-family="Times New Roman,serif"
         font-size="14.00"
         fill="#D95F02"
         id="text23">registrationRequestGUTI / identityRequest</text>
    </g>
    <g
       id="node9"
       class="node">
      <title
         id="title23">s8</title>
      <ellipse
         fill="none"
         stroke="black"
         cx="679.11"
         cy="-609.46"
         rx="19.11"
         ry="19.11"
         id="ellipse23" />
      <text
         xml:space="preserve"
         text-anchor="middle"
         x="679.11"
         y="-604.41"
         font-family="Times New Roman,serif"
         font-size="14.00"
         id="text24">s8</text>
    </g>
    <g
       id="edge12"
       class="edge"
       data-register-inference-categories="terminal_observable"
       data-register-inference-edge-ids="E0085">
      <title
         id="title24">s7-&gt;s8</title>
      <path
         fill="none"
         stroke="#7570B3"
         d="M794.13,-697.03C771.09,-693.54 732.2,-684.69 706.86,-663.07 699.15,-656.49 693.28,-647.23 688.96,-638.31"
         stroke-width="3.4"
         id="path24" />
      <polygon
         fill="#7570B3"
         stroke="#7570B3"
         points="692.21,-636.99 685.05,-629.18 685.77,-639.75 692.21,-636.99"
         id="polygon24" />
      <text
         xml:space="preserve"
         text-anchor="middle"
         x="824.98"
         y="-649.77"
         font-family="Times New Roman,serif"
         font-size="14.00"
         fill="#7570B3"
         id="text25">registrationRequest / authenticationRequest</text>
    </g>
    <g
       id="edge14"
       class="edge"
       data-register-inference-categories="relatively_stable"
       data-register-inference-edge-ids="E0097,E0098">
      <title
         id="title25">s8-&gt;s1</title>
      <path
         fill="none"
         stroke="#1B9E77"
         d="M664.72,-622.69C637.5,-647.39 583.21,-705.02 607.11,-753.78 661.76,-865.31 835.97,-879.81 907.25,-880.95"
         stroke-width="3.4"
         id="path25" />
      <polygon
         fill="#1B9E77"
         stroke="#1B9E77"
         points="907.01,-884.45 917.04,-881.02 907.06,-877.45 907.01,-884.45"
         id="polygon25" />
      <text
         xml:space="preserve"
         text-anchor="middle"
         x="799.11"
         y="-740.48"
         font-family="Times New Roman,serif"
         font-size="14.00"
         fill="#1B9E77"
         id="text26">registrationRequest | registrationRequestGUTI / authenticationRequest</text>
    </g>
    <g
       id="node10"
       class="node">
      <title
         id="title26">s9</title>
      <ellipse
         fill="none"
         stroke="black"
         cx="938.11"
         cy="-514.14"
         rx="19.11"
         ry="19.11"
         id="ellipse26" />
      <text
         xml:space="preserve"
         text-anchor="middle"
         x="938.11"
         y="-509.09"
         font-family="Times New Roman,serif"
         font-size="14.00"
         id="text27">s9</text>
    </g>
    <g
       id="edge15"
       class="edge"
       data-register-inference-categories="relatively_stable"
       data-register-inference-edge-ids="E0103">
      <title
         id="title27">s8-&gt;s9</title>
      <path
         fill="none"
         stroke="#1B9E77"
         d="M670.57,-592.38C665.78,-580.91 662.3,-565.81 670.86,-555.85 701.1,-520.65 844.09,-515.54 907.6,-515.04"
         stroke-width="3.4"
         id="path27" />
      <polygon
         fill="#1B9E77"
         stroke="#1B9E77"
         points="907.33,-518.54 917.32,-515 907.3,-511.54 907.33,-518.54"
         id="polygon27" />
      <text
         xml:space="preserve"
         text-anchor="middle"
         x="806.98"
         y="-559.05"
         font-family="Times New Roman,serif"
         font-size="14.00"
         fill="#1B9E77"
         id="text28">authenticationResponse / securityModeCommand</text>
    </g>
    <g
       id="edge18"
       class="edge"
       data-register-inference-categories="predecessor_minimal"
       data-register-inference-edge-ids="E0114">
      <title
         id="title28">s9-&gt;s7</title>
      <path
         fill="none"
         stroke="#D95F02"
         d="M944.99,-532.29C955.77,-562.2 972.5,-624.4 943.11,-663.07 931.09,-678.87 877.99,-689.58 843.48,-695.01"
         stroke-width="3.4"
         id="path28" />
      <polygon
         fill="#D95F02"
         stroke="#D95F02"
         points="843.01,-691.54 833.64,-696.48 844.05,-698.46 843.01,-691.54"
         id="polygon28" />
      <text
         xml:space="preserve"
         text-anchor="middle"
         x="1050.34"
         y="-604.41"
         font-family="Times New Roman,serif"
         font-size="14.00"
         fill="#D95F02"
         id="text29">securityModeReject / null_action</text>
    </g>
    <g
       id="node11"
       class="node">
      <title
         id="title29">s10</title>
      <ellipse
         fill="none"
         stroke="black"
         cx="1260.11"
         cy="-314.28"
         rx="23.71"
         ry="23.71"
         id="ellipse29" />
      <text
         xml:space="preserve"
         text-anchor="middle"
         x="1260.11"
         y="-309.23"
         font-family="Times New Roman,serif"
         font-size="14.00"
         id="text30">s10</text>
    </g>
    <g
       id="edge16"
       class="edge"
       data-register-inference-categories="relatively_stable"
       data-register-inference-edge-ids="E0109,E0110">
      <title
         id="title30">s9-&gt;s10</title>
      <path
         fill="none"
         stroke="#1B9E77"
         d="M957.43,-510.92C997.48,-505.96 1087.67,-492.79 1110.11,-472.43 1138.6,-446.57 1107.39,-413.67 1138.11,-390.5 1169.37,-366.91 1463.13,-400.89 1490.11,-372.5 1495.16,-367.18 1494.82,-361.62 1490.11,-356 1465.67,-326.85 1353.56,-318.56 1295.38,-316.21"
         stroke-width="3.4"
         id="path30" />
      <polygon
         fill="#1B9E77"
         stroke="#1B9E77"
         points="1295.8,-312.72 1285.68,-315.86 1295.55,-319.72 1295.8,-312.72"
         id="polygon30" />
      <text
         xml:space="preserve"
         text-anchor="middle"
         x="1330.11"
         y="-409.16"
         font-family="Times New Roman,serif"
         font-size="14.00"
         fill="#1B9E77"
         id="text31">registrationRequest | registrationRequestGUTI / authenticationRequest</text>
    </g>
    <g
       id="node12"
       class="node">
      <title
         id="title31">s11</title>
      <ellipse
         fill="none"
         stroke="black"
         cx="966.11"
         cy="-414.21"
         rx="23.71"
         ry="23.71"
         id="ellipse31" />
      <text
         xml:space="preserve"
         text-anchor="middle"
         x="966.11"
         y="-409.16"
         font-family="Times New Roman,serif"
         font-size="14.00"
         id="text32">s11</text>
    </g>
    <g
       id="edge17"
       class="edge"
       data-register-inference-categories="predecessor_minimal"
       data-register-inference-edge-ids="E0112">
      <title
         id="title32">s9-&gt;s11</title>
      <path
         fill="none"
         stroke="#D95F02"
         d="M927.65,-498.2C920.79,-486.44 914.14,-469.78 920.36,-455.93 924.09,-447.6 930.46,-440.29 937.28,-434.24"
         stroke-width="3.4"
         id="path32" />
      <polygon
         fill="#D95F02"
         stroke="#D95F02"
         points="939.18,-437.2 944.81,-428.22 934.81,-431.73 939.18,-437.2"
         id="polygon32" />
      <text
         xml:space="preserve"
         text-anchor="middle"
         x="1015.23"
         y="-459.13"
         font-family="Times New Roman,serif"
         font-size="14.00"
         fill="#D95F02"
         id="text33">deregistrationRequest / null_action</text>
    </g>
    <g
       id="edge19"
       class="edge"
       data-register-inference-categories="predecessor_minimal"
       data-register-inference-edge-ids="E0124">
      <title
         id="title33">s10-&gt;s11</title>
      <path
         fill="none"
         stroke="#D95F02"
         d="M1239.12,-326.16C1229.85,-330.52 1218.67,-335.17 1208.11,-338 1139.1,-356.5 1115.11,-330.51 1048.36,-356 1036.52,-360.52 1035.49,-365.23 1025.11,-372.5 1015.24,-379.4 1004.41,-386.9 994.74,-393.56"
         stroke-width="3.4"
         id="path33" />
      <polygon
         fill="#D95F02"
         stroke="#D95F02"
         points="993.05,-390.48 986.8,-399.03 997.02,-396.25 993.05,-390.48"
         id="polygon33" />
      <text
         xml:space="preserve"
         text-anchor="middle"
         x="1143.23"
         y="-359.2"
         font-family="Times New Roman,serif"
         font-size="14.00"
         fill="#D95F02"
         id="text34">deregistrationRequest / null_action</text>
    </g>
    <g
       id="node18"
       class="node">
      <title
         id="title34">s17</title>
      <ellipse
         fill="none"
         stroke="black"
         cx="1194.11"
         cy="-214.36"
         rx="23.71"
         ry="23.71"
         id="ellipse34" />
      <text
         xml:space="preserve"
         text-anchor="middle"
         x="1194.11"
         y="-209.31"
         font-family="Times New Roman,serif"
         font-size="14.00"
         id="text35">s17</text>
    </g>
    <g
       id="edge20"
       class="edge"
       data-register-inference-categories="relatively_stable"
       data-register-inference-edge-ids="E0127">
      <title
         id="title35">s10-&gt;s17</title>
      <path
         fill="none"
         stroke="#1B9E77"
         d="M1239.12,-302.4C1229.85,-298.05 1218.67,-293.4 1208.11,-290.57 1173.49,-281.29 1071.74,-299.29 1047.86,-272.57 1014.24,-234.96 1105.6,-221.83 1158.85,-217.44"
         stroke-width="3.4"
         id="path35" />
      <polygon
         fill="#1B9E77"
         stroke="#1B9E77"
         points="1158.99,-220.94 1168.7,-216.7 1158.46,-213.96 1158.99,-220.94"
         id="polygon35" />
      <text
         xml:space="preserve"
         text-anchor="middle"
         x="1183.98"
         y="-259.27"
         font-family="Times New Roman,serif"
         font-size="14.00"
         fill="#1B9E77"
         id="text36">authenticationResponse / securityModeCommand</text>
    </g>
    <g
       id="edge21"
       class="edge"
       data-register-inference-categories="terminal_observable"
       data-register-inference-edge-ids="E0133">
      <title
         id="title36">s11-&gt;s10</title>
      <path
         fill="none"
         stroke="#7570B3"
         d="M989.66,-409.03C1016.74,-404.28 1062.57,-396.41 1102.11,-390.5 1132.26,-385.99 1214.17,-391.37 1238.11,-372.5 1245.59,-366.6 1250.53,-357.82 1253.79,-348.9"
         stroke-width="3.4"
         id="path36" />
      <polygon
         fill="#7570B3"
         stroke="#7570B3"
         points="1257.07,-350.17 1256.56,-339.59 1250.36,-348.18 1257.07,-350.17"
         id="polygon36" />
      <text
         xml:space="preserve"
         text-anchor="middle"
         x="1368.32"
         y="-359.2"
         font-family="Times New Roman,serif"
         font-size="14.00"
         fill="#7570B3"
         id="text37">registrationRequest / authenticationRequest</text>
    </g>
    <g
       id="node17"
       class="node">
      <title
         id="title37">s16</title>
      <ellipse
         fill="none"
         stroke="black"
         cx="553.11"
         cy="-314.28"
         rx="23.71"
         ry="23.71"
         id="ellipse37" />
      <text
         xml:space="preserve"
         text-anchor="middle"
         x="553.11"
         y="-309.23"
         font-family="Times New Roman,serif"
         font-size="14.00"
         id="text38">s16</text>
    </g>
    <g
       id="edge22"
       class="edge"
       data-register-inference-categories="predecessor_minimal"
       data-register-inference-edge-ids="E0134">
      <title
         id="title38">s11-&gt;s16</title>
      <path
         fill="none"
         stroke="#D95F02"
         d="M942.16,-412.67C858.11,-410.51 580.24,-401.24 553.86,-372.5 547.97,-366.09 546.03,-357.36 546.01,-348.66"
         stroke-width="3.4"
         id="path38" />
      <polygon
         fill="#D95F02"
         stroke="#D95F02"
         points="549.48,-349.19 546.82,-338.94 542.51,-348.61 549.48,-349.19"
         id="polygon38" />
      <text
         xml:space="preserve"
         text-anchor="middle"
         x="670.48"
         y="-359.2"
         font-family="Times New Roman,serif"
         font-size="14.00"
         fill="#D95F02"
         id="text39">registrationRequestGUTI / identityRequest</text>
    </g>
    <g
       id="node14"
       class="node">
      <title
         id="title39">s13</title>
      <ellipse
         fill="none"
         stroke="black"
         cx="1726.11"
         cy="-414.21"
         rx="23.71"
         ry="23.71"
         id="ellipse39" />
      <text
         xml:space="preserve"
         text-anchor="middle"
         x="1726.11"
         y="-409.16"
         font-family="Times New Roman,serif"
         font-size="14.00"
         id="text40">s13</text>
    </g>
    <g
       id="edge23"
       class="edge"
       data-register-inference-categories="terminal_observable"
       data-register-inference-edge-ids="E0145,E0146">
      <title
         id="title40">s12-&gt;s13</title>
      <path
         fill="none"
         stroke="#7570B3"
         d="M1908.58,-509.19C1878.59,-504.26 1825.12,-495.82 1779.11,-490.43 1755.96,-487.71 1585.87,-489.6 1570.11,-472.43 1533.51,-432.54 1634.39,-420.39 1690.86,-416.74"
         stroke-width="3.4"
         id="path40" />
      <polygon
         fill="#7570B3"
         stroke="#7570B3"
         points="1690.88,-420.24 1700.66,-416.17 1690.47,-413.26 1690.88,-420.24"
         id="polygon40" />
      <text
         xml:space="preserve"
         text-anchor="middle"
         x="1762.11"
         y="-459.13"
         font-family="Times New Roman,serif"
         font-size="14.00"
         fill="#7570B3"
         id="text41">registrationRequest | registrationRequestGUTI / authenticationRequest</text>
    </g>
    <g
       id="edge24"
       class="edge"
       data-register-inference-categories="predecessor_minimal"
       data-register-inference-edge-ids="E0160">
      <title
         id="title41">s13-&gt;s12</title>
      <path
         fill="none"
         stroke="#D95F02"
         d="M1749.96,-415.76C1803.03,-417.55 1928.23,-425.02 1954.11,-455.93 1961.28,-464.49 1958.87,-475.66 1953.53,-485.85"
         stroke-width="3.4"
         id="path41" />
      <polygon
         fill="#D95F02"
         stroke="#D95F02"
         points="1950.58,-483.96 1948.26,-494.3 1956.52,-487.66 1950.58,-483.96"
         id="polygon41" />
      <text
         xml:space="preserve"
         text-anchor="middle"
         x="2053.45"
         y="-459.13"
         font-family="Times New Roman,serif"
         font-size="14.00"
         fill="#D95F02"
         id="text42">deregistrationRequest / null_action</text>
    </g>
    <g
       id="node15"
       class="node">
      <title
         id="title42">s14</title>
      <ellipse
         fill="none"
         stroke="black"
         cx="1741.11"
         cy="-314.28"
         rx="23.71"
         ry="23.71"
         id="ellipse42" />
      <text
         xml:space="preserve"
         text-anchor="middle"
         x="1741.11"
         y="-309.23"
         font-family="Times New Roman,serif"
         font-size="14.00"
         id="text43">s14</text>
    </g>
    <g
       id="edge25"
       class="edge"
       data-register-inference-categories="relatively_stable"
       data-register-inference-edge-ids="E0163">
      <title
         id="title43">s13-&gt;s14</title>
      <path
         fill="none"
         stroke="#1B9E77"
         d="M1702.2,-412.72C1650.13,-410.8 1533.95,-401.44 1569.86,-356 1586.51,-334.92 1661.04,-323.59 1706.11,-318.56"
         stroke-width="3.4"
         id="path43" />
      <polygon
         fill="#1B9E77"
         stroke="#1B9E77"
         points="1706.35,-322.06 1715.92,-317.52 1705.61,-315.1 1706.35,-322.06"
         id="polygon43" />
      <text
         xml:space="preserve"
         text-anchor="middle"
         x="1705.98"
         y="-359.2"
         font-family="Times New Roman,serif"
         font-size="14.00"
         fill="#1B9E77"
         id="text44">authenticationResponse / securityModeCommand</text>
    </g>
    <g
       id="edge29"
       class="edge"
       data-register-inference-categories="predecessor_minimal"
       data-register-inference-edge-ids="E0178">
      <title
         id="title44">s14-&gt;s4</title>
      <path
         fill="none"
         stroke="#D95F02"
         d="M1717.45,-317.83C1673.8,-322.97 1582.86,-335.82 1559.11,-356 1538.22,-373.74 1536.11,-385.81 1536.11,-413.21 1536.11,-610.46 1536.11,-610.46 1536.11,-610.46 1536.11,-630.14 1536.11,-652.27 1536.11,-669.51"
         stroke-width="3.4"
         id="path44" />
      <polygon
         fill="#D95F02"
         stroke="#D95F02"
         points="1532.61,-669.31 1536.11,-679.31 1539.61,-669.31 1532.61,-669.31"
         id="polygon44" />
      <text
         xml:space="preserve"
         text-anchor="middle"
         x="1655.73"
         y="-509.09"
         font-family="Times New Roman,serif"
         font-size="14.00"
         fill="#D95F02"
         id="text45">securityModeComplete / registrationAccept</text>
    </g>
    <g
       id="edge27"
       class="edge"
       data-register-inference-categories="predecessor_minimal"
       data-register-inference-edge-ids="E0172">
      <title
         id="title45">s14-&gt;s12</title>
      <path
         fill="none"
         stroke="#D95F02"
         d="M1765.07,-315.41C1859.46,-316.13 2202.04,-321.17 2234.11,-356 2239.07,-361.39 2238.05,-366.32 2234.11,-372.5 2223.89,-388.51 2209.12,-377.42 2195.36,-390.5 2165.51,-418.86 2185.28,-448.03 2152.11,-472.43 2123.24,-493.65 2021.75,-505.43 1967.28,-510.35"
         stroke-width="3.4"
         id="path45" />
      <polygon
         fill="#D95F02"
         stroke="#D95F02"
         points="1967.26,-506.84 1957.61,-511.19 1967.87,-513.81 1967.26,-506.84"
         id="polygon45" />
      <text
         xml:space="preserve"
         text-anchor="middle"
         x="2290.23"
         y="-409.16"
         font-family="Times New Roman,serif"
         font-size="14.00"
         fill="#D95F02"
         id="text46">deregistrationRequest / null_action</text>
    </g>
    <g
       id="edge26"
       class="edge"
       data-register-inference-categories="relatively_stable"
       data-register-inference-edge-ids="E0169,E0170">
      <title
         id="title46">s14-&gt;s13</title>
      <path
         fill="none"
         stroke="#1B9E77"
         d="M1764.79,-318.97C1800.98,-325.66 1863.73,-342 1842.11,-372.5 1823.94,-398.13 1788.3,-407.75 1761.3,-411.29"
         stroke-width="3.4"
         id="path46" />
      <polygon
         fill="#1B9E77"
         stroke="#1B9E77"
         points="1761.04,-407.8 1751.47,-412.34 1761.79,-414.76 1761.04,-407.8"
         id="polygon46" />
      <text
         xml:space="preserve"
         text-anchor="middle"
         x="2038.53"
         y="-359.2"
         font-family="Times New Roman,serif"
         font-size="14.00"
         fill="#1B9E77"
         id="text47">registrationRequest | registrationRequestGUTI / authenticationRequest</text>
    </g>
    <g
       id="node16"
       class="node">
      <title
         id="title47">s15</title>
      <ellipse
         fill="none"
         stroke="black"
         cx="1394.11"
         cy="-114.43"
         rx="23.71"
         ry="23.71"
         id="ellipse47" />
      <text
         xml:space="preserve"
         text-anchor="middle"
         x="1394.11"
         y="-109.38"
         font-family="Times New Roman,serif"
         font-size="14.00"
         id="text48">s15</text>
    </g>
    <g
       id="edge28"
       class="edge"
       data-register-inference-categories="predecessor_minimal"
       data-register-inference-edge-ids="E0174">
      <title
         id="title48">s14-&gt;s15</title>
      <path
         fill="none"
         stroke="#D95F02"
         d="M1734,-291.23C1729.32,-279.56 1722.17,-265.69 1712.11,-256.07 1628.53,-176.13 1491.96,-137.08 1428.51,-122.48"
         stroke-width="3.4"
         id="path48" />
      <polygon
         fill="#D95F02"
         stroke="#D95F02"
         points="1429.54,-119.12 1419.02,-120.36 1428.02,-125.96 1429.54,-119.12"
         id="polygon48" />
      <text
         xml:space="preserve"
         text-anchor="middle"
         x="1779.35"
         y="-209.31"
         font-family="Times New Roman,serif"
         font-size="14.00"
         fill="#D95F02"
         id="text49">securityModeReject / null_action</text>
    </g>
    <g
       id="edge30"
       class="edge"
       data-register-inference-categories="terminal_observable"
       data-register-inference-edge-ids="E0181">
      <title
         id="title49">s15-&gt;s1</title>
      <path
         fill="none"
         stroke="#7570B3"
         d="M1417.96,-115.18C1570.15,-113.87 2399.11,-111.46 2399.11,-213.36 2399.11,-791.89 2399.11,-791.89 2399.11,-791.89 2399.11,-866.17 1180.08,-878.77 969.05,-880.4"
         stroke-width="3.4"
         id="path49" />
      <polygon
         fill="#7570B3"
         stroke="#7570B3"
         points="969.14,-876.89 959.17,-880.47 969.2,-883.89 969.14,-876.89"
         id="polygon49" />
      <text
         xml:space="preserve"
         text-anchor="middle"
         x="2517.23"
         y="-509.09"
         font-family="Times New Roman,serif"
         font-size="14.00"
         fill="#7570B3"
         id="text50">registrationRequest / authenticationRequest</text>
    </g>
    <g
       id="edge31"
       class="edge"
       data-register-inference-categories="predecessor_minimal"
       data-register-inference-edge-ids="E0182">
      <title
         id="title50">s15-&gt;s6</title>
      <path
         fill="none"
         stroke="#D95F02"
         d="M1370.93,-107.66C1305.74,-91.44 1120.81,-45.42 1048.55,-27.43"
         stroke-width="3.4"
         id="path50" />
      <polygon
         fill="#D95F02"
         stroke="#D95F02"
         points="1049.59,-24.09 1039.04,-25.07 1047.9,-30.88 1049.59,-24.09"
         id="polygon50" />
      <text
         xml:space="preserve"
         text-anchor="middle"
         x="1345.68"
         y="-59.42"
         font-family="Times New Roman,serif"
         font-size="14.00"
         fill="#D95F02"
         id="text51">registrationRequestGUTI / identityRequest</text>
    </g>
    <g
       id="edge32"
       class="edge"
       data-register-inference-categories="terminal_observable"
       data-register-inference-edge-ids="E0193,E0203">
      <title
         id="title51">s16-&gt;s1</title>
      <path
         fill="none"
         stroke="#7570B3"
         d="M529.07,-315.52C469.02,-316.62 314.68,-322.68 278.11,-356 258.76,-373.63 264.11,-387.03 264.11,-413.21 264.11,-791.89 264.11,-791.89 264.11,-791.89 264.11,-857.7 775.71,-876.18 907.46,-879.84"
         stroke-width="3.4"
         id="path51" />
      <polygon
         fill="#7570B3"
         stroke="#7570B3"
         points="907.06,-883.34 917.15,-880.11 907.25,-876.34 907.06,-883.34"
         id="polygon51" />
      <text
         xml:space="preserve"
         text-anchor="middle"
         x="433.98"
         y="-604.41"
         font-family="Times New Roman,serif"
         font-size="14.00"
         fill="#7570B3"
         id="text52">registrationRequest | identityResponse / authenticationRequest</text>
    </g>
    <g
       id="edge33"
       class="edge"
       data-register-inference-categories="predecessor_minimal"
       data-register-inference-edge-ids="E0196">
      <title
         id="title52">s16-&gt;s11</title>
      <path
         fill="none"
         stroke="#D95F02"
         d="M576.98,-315.98C620.43,-317.99 714.59,-325.79 787.11,-356 798.8,-360.87 798.87,-367.14 810.36,-372.5 849.83,-390.91 898.97,-401.99 931.38,-407.85"
         stroke-width="3.4"
         id="path52" />
      <polygon
         fill="#D95F02"
         stroke="#D95F02"
         points="930.57,-411.26 941.02,-409.51 931.76,-404.36 930.57,-411.26"
         id="polygon52" />
      <text
         xml:space="preserve"
         text-anchor="middle"
         x="905.23"
         y="-359.2"
         font-family="Times New Roman,serif"
         font-size="14.00"
         fill="#D95F02"
         id="text53">deregistrationRequest / null_action</text>
    </g>
    <g
       id="edge34"
       class="edge"
       data-register-inference-categories="relatively_stable"
       data-register-inference-edge-ids="E0205,E0206">
      <title
         id="title53">s17-&gt;s10</title>
      <path
         fill="none"
         stroke="#1B9E77"
         d="M1218.13,-215.29C1247.68,-216.67 1296.77,-224.01 1320.11,-256.07 1332.21,-272.7 1312.12,-288.58 1292,-299.38"
         stroke-width="3.4"
         id="path53" />
      <polygon
         fill="#1B9E77"
         stroke="#1B9E77"
         points="1290.69,-296.12 1283.3,-303.72 1293.81,-302.38 1290.69,-296.12"
         id="polygon53" />
      <text
         xml:space="preserve"
         text-anchor="middle"
         x="1515.77"
         y="-259.27"
         font-family="Times New Roman,serif"
         font-size="14.00"
         fill="#1B9E77"
         id="text54">registrationRequest | registrationRequestGUTI / authenticationRequest</text>
    </g>
    <g
       id="edge35"
       class="edge"
       data-register-inference-categories="predecessor_minimal"
       data-register-inference-edge-ids="E0208">
      <title
         id="title54">s17-&gt;s11</title>
      <path
         fill="none"
         stroke="#D95F02"
         d="M1169.97,-214.78C1135.88,-215.31 1073.7,-221.4 1037.11,-256.07 997.69,-293.41 1026.22,-324.89 1000.11,-372.5 997.12,-377.95 993.34,-383.35 989.4,-388.36"
         stroke-width="3.4"
         id="path54" />
      <polygon
         fill="#D95F02"
         stroke="#D95F02"
         points="986.98,-385.8 983.24,-395.71 992.35,-390.3 986.98,-385.8"
         id="polygon54" />
      <text
         xml:space="preserve"
         text-anchor="middle"
         x="1110.94"
         y="-309.23"
         font-family="Times New Roman,serif"
         font-size="14.00"
         fill="#D95F02"
         id="text55">deregistrationRequest / null_action</text>
    </g>
    <g
       id="edge36"
       class="edge"
       data-register-inference-categories="predecessor_minimal"
       data-register-inference-edge-ids="E0210">
      <title
         id="title55">s17-&gt;s15</title>
      <path
         fill="none"
         stroke="#D95F02"
         d="M1215.13,-203.06C1250.39,-185.8 1321.62,-150.92 1362.79,-130.76"
         stroke-width="3.4"
         id="path55" />
      <polygon
         fill="#D95F02"
         stroke="#D95F02"
         points="1364.26,-133.94 1371.7,-126.4 1361.18,-127.65 1364.26,-133.94"
         id="polygon55" />
      <text
         xml:space="preserve"
         text-anchor="middle"
         x="1396.83"
         y="-159.34"
         font-family="Times New Roman,serif"
         font-size="14.00"
         fill="#D95F02"
         id="text56">securityModeReject / null_action</text>
    </g>
    <g
       id="node19"
       class="node">
      <title
         id="title56">__start0</title>
    </g>
    <g
       id="edge37"
       class="edge">
      <title
         id="title57">__start0-&gt;s0</title>
      <path
         fill="none"
         stroke="black"
         d="M19.11,-1046.48C19.11,-1045.25 19.11,-1022.79 19.11,-1003.08"
         id="path57" />
      <polygon
         fill="black"
         stroke="black"
         points="22.61,-1003.19 19.11,-993.19 15.61,-1003.19 22.61,-1003.19"
         id="polygon57" />
    </g>
  </g>
  <g
     id="register-inference-legend">
    <rect
       x="24"
       y="20"
       width="1540"
       height="50"
       rx="6"
       fill="#FFFFFF"
       fill-opacity="0.94"
       stroke="#666666"
       stroke-width="1"
       id="rect57" />
    <line
       x1="42"
       y1="45"
       x2="72"
       y2="45"
       stroke="#1B9E77"
       stroke-width="5"
       stroke-linecap="round"
       id="line57" />
    <text
       x="82"
       y="50"
       font-family="Arial, sans-serif"
       font-size="15"
       fill="#222222"
       id="text57">相对稳定推断（14 条）</text>
    <line
       x1="407"
       y1="45"
       x2="437"
       y2="45"
       stroke="#D95F02"
       stroke-width="5"
       stroke-linecap="round"
       id="line58" />
    <text
       x="447"
       y="50"
       font-family="Arial, sans-serif"
       font-size="15"
       fill="#222222"
       id="text58">前序最简假设性推断（18 条）</text>
    <line
       x1="772"
       y1="45"
       x2="802"
       y2="45"
       stroke="#7570B3"
       stroke-width="5"
       stroke-linecap="round"
       id="line59" />
    <text
       x="812"
       y="50"
       font-family="Arial, sans-serif"
       font-size="15"
       fill="#222222"
       id="text59">前序归因（末端有可观察下行）的假设性推断（10 条）</text>
    <line
       x1="1137"
       y1="45"
       x2="1167"
       y2="45"
       stroke="#E7298A"
       stroke-width="5"
       stroke-linecap="round"
       id="line60" />
    <text
       x="1177"
       y="50"
       font-family="Arial, sans-serif"
       font-size="15"
       fill="#222222"
       id="text60">前序反推组合（E0002 + E0073）（2 条）</text>
  </g>
</svg>
