<?xml version="1.0" encoding="UTF-8" standalone="no"?>
<!DOCTYPE svg PUBLIC "-//W3C//DTD SVG 1.1//EN"
 "http://www.w3.org/Graphics/SVG/1.1/DTD/svg11.dtd">
<!-- Generated by graphviz version 13.1.2 (20250808.2320)
 -->
<!-- Title: g Pages: 1 -->
<svg width="2889pt" height="1137pt"
 viewBox="0.00 0.00 2889.00 1137.00" xmlns="http://www.w3.org/2000/svg" xmlns:xlink="http://www.w3.org/1999/xlink">
<g id="graph0" class="graph" transform="scale(1 1) rotate(0) translate(4 1132.64)">
<title>g</title>
<polygon fill="white" stroke="none" points="-4,4 -4,-1132.64 2884.75,-1132.64 2884.75,4 -4,4"/>
<text xml:space="preserve" text-anchor="middle" x="1440.38" y="-1105.64" font-family="Microsoft YaHei" font-size="20.00">hypothesis_14_extra X008｜extra_short_cycle</text>
<text xml:space="preserve" text-anchor="middle" x="1440.38" y="-1078.64" font-family="Microsoft YaHei" font-size="20.00">s0 → s1 → s3 → s7 → s0</text>
<!-- s0 -->
<g id="node1" class="node">
<title>s0</title>
<ellipse fill="none" stroke="black" cx="219" cy="-972.32" rx="19.11" ry="19.11"/>
<text xml:space="preserve" text-anchor="middle" x="219" y="-967.27" font-family="Times New Roman,serif" font-size="14.00">s0</text>
</g>
<!-- s1 -->
<g id="node2" class="node">
<title>s1</title>
<ellipse fill="none" stroke="black" cx="772" cy="-881.61" rx="19.11" ry="19.11"/>
<text xml:space="preserve" text-anchor="middle" x="772" y="-876.56" font-family="Times New Roman,serif" font-size="14.00">s1</text>
</g>
<!-- s0&#45;&gt;s1 -->
<g id="edge1" class="edge">
<title>s0&#45;&gt;s1</title>
<path fill="none" stroke="#6d4c41" stroke-width="4" d="M238.04,-968.27C318.63,-955.34 632.46,-904.99 737.52,-888.14"/>
<polygon fill="#6d4c41" stroke="#6d4c41" stroke-width="4" points="737.75,-891.65 747.07,-886.61 736.64,-884.73 737.75,-891.65"/>
<text xml:space="preserve" text-anchor="middle" x="663.16" y="-921.91" font-family="Times New Roman,serif" font-size="14.00" fill="#6d4c41">registrationRequest / authenticationRequest</text>
</g>
<!-- s6 -->
<g id="node7" class="node">
<title>s6</title>
<ellipse fill="none" stroke="black" cx="860" cy="-19.11" rx="19.11" ry="19.11"/>
<text xml:space="preserve" text-anchor="middle" x="860" y="-14.06" font-family="Times New Roman,serif" font-size="14.00">s6</text>
</g>
<!-- s0&#45;&gt;s6 -->
<g id="edge2" class="edge">
<title>s0&#45;&gt;s6</title>
<path fill="none" stroke="black" d="M199.57,-972.12C145.97,-973.22 0,-968.34 0,-882.61 0,-882.61 0,-882.61 0,-113.43 0,-28.25 675.34,-20.75 829.1,-20.15"/>
<polygon fill="black" stroke="black" points="828.92,-23.65 838.91,-20.12 828.9,-16.65 828.92,-23.65"/>
<text xml:space="preserve" text-anchor="middle" x="116.62" y="-509.09" font-family="Times New Roman,serif" font-size="14.00">registrationRequestGUTI / identityRequest</text>
</g>
<!-- s3 -->
<g id="node4" class="node">
<title>s3</title>
<ellipse fill="none" stroke="black" cx="643" cy="-790.89" rx="19.11" ry="19.11"/>
<text xml:space="preserve" text-anchor="middle" x="643" y="-785.84" font-family="Times New Roman,serif" font-size="14.00">s3</text>
</g>
<!-- s1&#45;&gt;s3 -->
<g id="edge3" class="edge">
<title>s1&#45;&gt;s3</title>
<path fill="none" stroke="#6d4c41" stroke-width="4" d="M752.52,-880.45C673.05,-879.64 376.37,-874.58 348.75,-844.5 312.83,-805.38 522.43,-795.19 607.92,-792.67"/>
<polygon fill="#6d4c41" stroke="#6d4c41" stroke-width="4" points="607.97,-796.17 617.88,-792.41 607.79,-789.17 607.97,-796.17"/>
<text xml:space="preserve" text-anchor="middle" x="484.88" y="-831.2" font-family="Times New Roman,serif" font-size="14.00" fill="#6d4c41">authenticationResponse / securityModeCommand</text>
</g>
<!-- s2 -->
<g id="node3" class="node">
<title>s2</title>
<ellipse fill="none" stroke="black" cx="256" cy="-1047.54" rx="19.11" ry="19.11"/>
<text xml:space="preserve" text-anchor="middle" x="256" y="-1042.49" font-family="Times New Roman,serif" font-size="14.00">s2</text>
</g>
<!-- s3&#45;&gt;s1 -->
<g id="edge4" class="edge">
<title>s3&#45;&gt;s1</title>
<path fill="none" stroke="black" d="M638.37,-809.74C636.6,-820.85 636.52,-834.81 644,-844.5 655.9,-859.91 707.65,-870.68 741.6,-876.24"/>
<polygon fill="black" stroke="black" points="740.85,-879.67 751.27,-877.76 741.94,-872.75 740.85,-879.67"/>
<text xml:space="preserve" text-anchor="middle" x="836" y="-831.2" font-family="Times New Roman,serif" font-size="14.00">registrationRequest | registrationRequestGUTI / authenticationRequest</text>
</g>
<!-- s4 -->
<g id="node5" class="node">
<title>s4</title>
<ellipse fill="none" stroke="black" cx="1623" cy="-700.18" rx="19.11" ry="19.11"/>
<text xml:space="preserve" text-anchor="middle" x="1623" y="-695.13" font-family="Times New Roman,serif" font-size="14.00">s4</text>
</g>
<!-- s3&#45;&gt;s4 -->
<g id="edge6" class="edge">
<title>s3&#45;&gt;s4</title>
<path fill="none" stroke="black" d="M662.04,-788.08C733.72,-781.27 994.08,-756.62 1208.75,-737.28 1352.21,-724.36 1523.68,-709.65 1592.35,-703.79"/>
<polygon fill="black" stroke="black" points="1592.41,-707.29 1602.08,-702.96 1591.82,-700.32 1592.41,-707.29"/>
<text xml:space="preserve" text-anchor="middle" x="1328.38" y="-740.48" font-family="Times New Roman,serif" font-size="14.00">securityModeComplete / registrationAccept</text>
</g>
<!-- s7 -->
<g id="node8" class="node">
<title>s7</title>
<ellipse fill="none" stroke="black" cx="455" cy="-700.18" rx="19.11" ry="19.11"/>
<text xml:space="preserve" text-anchor="middle" x="455" y="-695.13" font-family="Times New Roman,serif" font-size="14.00">s7</text>
</g>
<!-- s3&#45;&gt;s7 -->
<g id="edge5" class="edge">
<title>s3&#45;&gt;s7</title>
<path fill="none" stroke="#6d4c41" stroke-width="4" d="M639.85,-771.73C636.91,-760.21 631.35,-745.9 621,-737.28 601.43,-720.98 532.71,-710.24 490.07,-704.98"/>
<polygon fill="#6d4c41" stroke="#6d4c41" stroke-width="4" points="490.48,-701.5 480.14,-703.82 489.66,-708.46 490.48,-701.5"/>
<text xml:space="preserve" text-anchor="middle" x="723.76" y="-740.48" font-family="Times New Roman,serif" font-size="14.00" fill="#6d4c41">securityModeReject / null_action</text>
</g>
<!-- s4&#45;&gt;s1 -->
<g id="edge7" class="edge">
<title>s4&#45;&gt;s1</title>
<path fill="none" stroke="black" d="M1606.31,-710.15C1556.67,-736.35 1404.94,-812.87 1269,-844.5 1179.59,-865.3 896.87,-876.43 802.79,-879.62"/>
<polygon fill="black" stroke="black" points="802.68,-876.13 792.8,-879.96 802.91,-883.12 802.68,-876.13"/>
<text xml:space="preserve" text-anchor="middle" x="1609.19" y="-785.84" font-family="Times New Roman,serif" font-size="14.00">registrationRequestGUTI / authenticationRequest</text>
</g>
<!-- s5 -->
<g id="node6" class="node">
<title>s5</title>
<ellipse fill="none" stroke="black" cx="1806" cy="-609.46" rx="19.11" ry="19.11"/>
<text xml:space="preserve" text-anchor="middle" x="1806" y="-604.41" font-family="Times New Roman,serif" font-size="14.00">s5</text>
</g>
<!-- s4&#45;&gt;s5 -->
<g id="edge8" class="edge">
<title>s4&#45;&gt;s5</title>
<path fill="none" stroke="black" d="M1642.3,-698.16C1703.08,-694.75 1887.59,-682.84 1905,-663.07 1927.51,-637.49 1872.94,-622.29 1836.19,-615.24"/>
<polygon fill="black" stroke="black" points="1836.95,-611.82 1826.49,-613.5 1835.71,-618.71 1836.95,-611.82"/>
<text xml:space="preserve" text-anchor="middle" x="2057.99" y="-649.77" font-family="Times New Roman,serif" font-size="14.00">registrationComplete / configurationUpdateCommand</text>
</g>
<!-- s5&#45;&gt;s4 -->
<g id="edge9" class="edge">
<title>s5&#45;&gt;s4</title>
<path fill="none" stroke="black" d="M1786.51,-610.25C1755.22,-610.88 1693.2,-616.22 1652.75,-646.57 1644.43,-652.81 1638.09,-662.12 1633.44,-671.17"/>
<polygon fill="black" stroke="black" points="1630.33,-669.56 1629.38,-680.11 1636.7,-672.45 1630.33,-669.56"/>
<text xml:space="preserve" text-anchor="middle" x="1776.88" y="-649.77" font-family="Times New Roman,serif" font-size="14.00">registrationRequestGUTI / registrationAccept</text>
</g>
<!-- s12 -->
<g id="node13" class="node">
<title>s12</title>
<ellipse fill="none" stroke="black" cx="1806" cy="-514.14" rx="23.71" ry="23.71"/>
<text xml:space="preserve" text-anchor="middle" x="1806" y="-509.09" font-family="Times New Roman,serif" font-size="14.00">s12</text>
</g>
<!-- s5&#45;&gt;s12 -->
<g id="edge10" class="edge">
<title>s5&#45;&gt;s12</title>
<path fill="none" stroke="black" d="M1806,-590.02C1806,-578.52 1806,-563.35 1806,-549.67"/>
<polygon fill="black" stroke="black" points="1809.5,-549.68 1806,-539.68 1802.5,-549.68 1809.5,-549.68"/>
<text xml:space="preserve" text-anchor="middle" x="1900.88" y="-559.05" font-family="Times New Roman,serif" font-size="14.00">deregistrationRequest / null_action</text>
</g>
<!-- s6&#45;&gt;s1 -->
<g id="edge11" class="edge">
<title>s6&#45;&gt;s1</title>
<path fill="none" stroke="black" d="M879.46,-20.13C1066.63,-20.46 2541,-25.83 2541,-113.43 2541,-791.89 2541,-791.89 2541,-791.89 2541,-882.57 1038.83,-881.46 802.99,-880.73"/>
<polygon fill="black" stroke="black" points="803.09,-877.23 793.08,-880.69 803.07,-884.23 803.09,-877.23"/>
<text xml:space="preserve" text-anchor="middle" x="2710.88" y="-459.13" font-family="Times New Roman,serif" font-size="14.00">registrationRequest | identityResponse / authenticationRequest</text>
</g>
<!-- s7&#45;&gt;s0 -->
<g id="edge38" class="edge">
<title>s7&#45;&gt;s0</title>
<path fill="none" stroke="#6d4c41" stroke-width="4" stroke-dasharray="5,2" d="M474.31,-701C529.22,-700.96 690.54,-703.91 819,-737.28 1505.25,-915.58 1098.37,-743.12 1028,-844.5 962.27,-939.2 897.74,-911.13 785,-935.21 682.84,-957.04 361.19,-967.49 254.08,-970.43"/>
<polygon fill="#6d4c41" stroke="#6d4c41" stroke-width="4" points="254.22,-966.92 244.32,-970.69 254.41,-973.92 254.22,-966.92"/>
<text xml:space="preserve" text-anchor="middle" x="1139.36" y="-831.2" font-family="Times New Roman,serif" font-size="14.00" fill="#6d4c41">deregistrationRequest / null_action</text>
</g>
<!-- s7&#45;&gt;s6 -->
<g id="edge13" class="edge">
<title>s7&#45;&gt;s6</title>
<path fill="none" stroke="black" d="M435.69,-699.08C386.62,-697.71 261,-686.75 261,-610.46 261,-610.46 261,-610.46 261,-113.43 261,-55.3 707.06,-28 829.33,-21.61"/>
<polygon fill="black" stroke="black" points="829.43,-25.11 839.24,-21.1 829.07,-18.12 829.43,-25.11"/>
<text xml:space="preserve" text-anchor="middle" x="377.62" y="-359.2" font-family="Times New Roman,serif" font-size="14.00">registrationRequestGUTI / identityRequest</text>
</g>
<!-- s8 -->
<g id="node9" class="node">
<title>s8</title>
<ellipse fill="none" stroke="black" cx="308" cy="-609.46" rx="19.11" ry="19.11"/>
<text xml:space="preserve" text-anchor="middle" x="308" y="-604.41" font-family="Times New Roman,serif" font-size="14.00">s8</text>
</g>
<!-- s7&#45;&gt;s8 -->
<g id="edge12" class="edge">
<title>s7&#45;&gt;s8</title>
<path fill="none" stroke="black" d="M435.94,-697.64C410.92,-694.73 366.79,-686.43 337.75,-663.07 329.64,-656.54 323.35,-647.18 318.68,-638.15"/>
<polygon fill="black" stroke="black" points="321.95,-636.88 314.58,-629.28 315.6,-639.82 321.95,-636.88"/>
<text xml:space="preserve" text-anchor="middle" x="455.88" y="-649.77" font-family="Times New Roman,serif" font-size="14.00">registrationRequest / authenticationRequest</text>
</g>
<!-- s8&#45;&gt;s1 -->
<g id="edge14" class="edge">
<title>s8&#45;&gt;s1</title>
<path fill="none" stroke="black" d="M293.74,-622.17C266.07,-646.38 209.75,-703.89 233,-753.78 259.48,-810.6 283.05,-820.6 341,-844.5 413.61,-874.44 655.34,-879.56 741.32,-880.43"/>
<polygon fill="black" stroke="black" points="741.07,-883.93 751.1,-880.51 741.13,-876.93 741.07,-883.93"/>
<text xml:space="preserve" text-anchor="middle" x="425" y="-740.48" font-family="Times New Roman,serif" font-size="14.00">registrationRequest | registrationRequestGUTI / authenticationRequest</text>
</g>
<!-- s9 -->
<g id="node10" class="node">
<title>s9</title>
<ellipse fill="none" stroke="black" cx="565" cy="-514.14" rx="19.11" ry="19.11"/>
<text xml:space="preserve" text-anchor="middle" x="565" y="-509.09" font-family="Times New Roman,serif" font-size="14.00">s9</text>
</g>
<!-- s8&#45;&gt;s9 -->
<g id="edge15" class="edge">
<title>s8&#45;&gt;s9</title>
<path fill="none" stroke="black" d="M300.15,-591.87C296.02,-580.45 293.37,-565.63 301.75,-555.85 331.44,-521.22 471.71,-515.79 534.49,-515.12"/>
<polygon fill="black" stroke="black" points="534.13,-518.62 544.1,-515.05 534.08,-511.62 534.13,-518.62"/>
<text xml:space="preserve" text-anchor="middle" x="437.88" y="-559.05" font-family="Times New Roman,serif" font-size="14.00">authenticationResponse / securityModeCommand</text>
</g>
<!-- s9&#45;&gt;s7 -->
<g id="edge18" class="edge">
<title>s9&#45;&gt;s7</title>
<path fill="none" stroke="black" d="M572.48,-532.21C584.26,-561.99 602.97,-624.01 574,-663.07 553.86,-690.23 513.82,-697.67 485.77,-699.36"/>
<polygon fill="black" stroke="black" points="485.95,-695.85 476.09,-699.71 486.21,-702.84 485.95,-695.85"/>
<text xml:space="preserve" text-anchor="middle" x="680.13" y="-604.41" font-family="Times New Roman,serif" font-size="14.00">securityModeReject / null_action</text>
</g>
<!-- s10 -->
<g id="node11" class="node">
<title>s10</title>
<ellipse fill="none" stroke="black" cx="765" cy="-314.28" rx="23.71" ry="23.71"/>
<text xml:space="preserve" text-anchor="middle" x="765" y="-309.23" font-family="Times New Roman,serif" font-size="14.00">s10</text>
</g>
<!-- s9&#45;&gt;s10 -->
<g id="edge16" class="edge">
<title>s9&#45;&gt;s10</title>
<path fill="none" stroke="black" d="M552.37,-499.27C533.02,-476.27 500.1,-428.95 518,-390.5 560.06,-300.15 643.56,-375.23 736,-338 736.78,-337.68 737.55,-337.34 738.32,-336.98"/>
<polygon fill="black" stroke="black" points="739.86,-340.14 746.6,-331.97 736.23,-334.15 739.86,-340.14"/>
<text xml:space="preserve" text-anchor="middle" x="710" y="-409.16" font-family="Times New Roman,serif" font-size="14.00">registrationRequest | registrationRequestGUTI / authenticationRequest</text>
</g>
<!-- s11 -->
<g id="node12" class="node">
<title>s11</title>
<ellipse fill="none" stroke="black" cx="935" cy="-414.21" rx="23.71" ry="23.71"/>
<text xml:space="preserve" text-anchor="middle" x="935" y="-409.16" font-family="Times New Roman,serif" font-size="14.00">s11</text>
</g>
<!-- s9&#45;&gt;s11 -->
<g id="edge17" class="edge">
<title>s9&#45;&gt;s11</title>
<path fill="none" stroke="black" d="M583.97,-510.97C635.74,-504.61 783.15,-483.5 897,-437.93 899.85,-436.79 902.73,-435.45 905.56,-434.01"/>
<polygon fill="black" stroke="black" points="907.14,-437.13 914.17,-429.21 903.74,-431.02 907.14,-437.13"/>
<text xml:space="preserve" text-anchor="middle" x="939.52" y="-459.13" font-family="Times New Roman,serif" font-size="14.00">deregistrationRequest / null_action</text>
</g>
<!-- s10&#45;&gt;s11 -->
<g id="edge19" class="edge">
<title>s10&#45;&gt;s11</title>
<path fill="none" stroke="black" d="M781.19,-331.87C796.01,-346.72 817.13,-366.99 827.25,-372.5 855.38,-387.79 867.46,-378.16 897,-390.5 899.83,-391.68 902.7,-393.04 905.53,-394.5"/>
<polygon fill="black" stroke="black" points="903.69,-397.49 914.13,-399.33 907.12,-391.39 903.69,-397.49"/>
<text xml:space="preserve" text-anchor="middle" x="922.12" y="-359.2" font-family="Times New Roman,serif" font-size="14.00">deregistrationRequest / null_action</text>
</g>
<!-- s17 -->
<g id="node18" class="node">
<title>s17</title>
<ellipse fill="none" stroke="black" cx="790" cy="-214.36" rx="23.71" ry="23.71"/>
<text xml:space="preserve" text-anchor="middle" x="790" y="-209.31" font-family="Times New Roman,serif" font-size="14.00">s17</text>
</g>
<!-- s10&#45;&gt;s17 -->
<g id="edge20" class="edge">
<title>s10&#45;&gt;s17</title>
<path fill="none" stroke="black" d="M745.56,-300.02C740.04,-296.63 733.92,-293.2 728,-290.57 702.07,-279.05 683.75,-295.29 666.75,-272.57 662.36,-266.7 662.45,-262.01 666.75,-256.07 686.65,-228.54 725.84,-219.32 754.71,-216.38"/>
<polygon fill="black" stroke="black" points="754.78,-219.89 764.47,-215.62 754.23,-212.91 754.78,-219.89"/>
<text xml:space="preserve" text-anchor="middle" x="802.88" y="-259.27" font-family="Times New Roman,serif" font-size="14.00">authenticationResponse / securityModeCommand</text>
</g>
<!-- s11&#45;&gt;s10 -->
<g id="edge21" class="edge">
<title>s11&#45;&gt;s10</title>
<path fill="none" stroke="black" d="M916.13,-399.5C910.28,-395.93 903.62,-392.52 897,-390.5 861.86,-379.76 592.02,-399.18 566.75,-372.5 561.71,-367.17 561.86,-361.46 566.75,-356 590.79,-329.13 693.9,-349.71 728,-338 730.74,-337.05 733.5,-335.88 736.2,-334.57"/>
<polygon fill="black" stroke="black" points="737.85,-337.66 744.89,-329.74 734.45,-331.54 737.85,-337.66"/>
<text xml:space="preserve" text-anchor="middle" x="684.88" y="-359.2" font-family="Times New Roman,serif" font-size="14.00">registrationRequest / authenticationRequest</text>
</g>
<!-- s16 -->
<g id="node17" class="node">
<title>s16</title>
<ellipse fill="none" stroke="black" cx="1295" cy="-314.28" rx="23.71" ry="23.71"/>
<text xml:space="preserve" text-anchor="middle" x="1295" y="-309.23" font-family="Times New Roman,serif" font-size="14.00">s16</text>
</g>
<!-- s11&#45;&gt;s16 -->
<g id="edge22" class="edge">
<title>s11&#45;&gt;s16</title>
<path fill="none" stroke="black" d="M956.76,-403.62C973.59,-395.91 997.28,-384.43 1017,-372.5 1027.69,-366.03 1028.21,-360.78 1039.75,-356 1114.01,-325.22 1209.33,-317.58 1259.87,-315.77"/>
<polygon fill="black" stroke="black" points="1259.73,-319.27 1269.62,-315.48 1259.52,-312.28 1259.73,-319.27"/>
<text xml:space="preserve" text-anchor="middle" x="1156.38" y="-359.2" font-family="Times New Roman,serif" font-size="14.00">registrationRequestGUTI / identityRequest</text>
</g>
<!-- s13 -->
<g id="node14" class="node">
<title>s13</title>
<ellipse fill="none" stroke="black" cx="1825" cy="-414.21" rx="23.71" ry="23.71"/>
<text xml:space="preserve" text-anchor="middle" x="1825" y="-409.16" font-family="Times New Roman,serif" font-size="14.00">s13</text>
</g>
<!-- s12&#45;&gt;s13 -->
<g id="edge23" class="edge">
<title>s12&#45;&gt;s13</title>
<path fill="none" stroke="black" d="M1817.88,-493.52C1821.18,-487.04 1824.32,-479.64 1826,-472.43 1827.72,-465.04 1828.32,-456.96 1828.32,-449.27"/>
<polygon fill="black" stroke="black" points="1831.83,-449.42 1827.98,-439.55 1824.83,-449.66 1831.83,-449.42"/>
<text xml:space="preserve" text-anchor="middle" x="2020.11" y="-459.13" font-family="Times New Roman,serif" font-size="14.00">registrationRequest | registrationRequestGUTI / authenticationRequest</text>
</g>
<!-- s13&#45;&gt;s12 -->
<g id="edge24" class="edge">
<title>s13&#45;&gt;s12</title>
<path fill="none" stroke="black" d="M1803.44,-424.74C1792.18,-429.36 1778.06,-434.61 1765,-437.93 1736.14,-445.24 1651.84,-433.51 1632.25,-455.93 1591.3,-502.81 1709.22,-469.94 1768,-490.43 1771.06,-491.49 1774.15,-492.82 1777.16,-494.31"/>
<polygon fill="black" stroke="black" points="1775.26,-497.25 1785.7,-499.01 1778.64,-491.12 1775.26,-497.25"/>
<text xml:space="preserve" text-anchor="middle" x="1727.12" y="-459.13" font-family="Times New Roman,serif" font-size="14.00">deregistrationRequest / null_action</text>
</g>
<!-- s14 -->
<g id="node15" class="node">
<title>s14</title>
<ellipse fill="none" stroke="black" cx="1550" cy="-314.28" rx="23.71" ry="23.71"/>
<text xml:space="preserve" text-anchor="middle" x="1550" y="-309.23" font-family="Times New Roman,serif" font-size="14.00">s14</text>
</g>
<!-- s13&#45;&gt;s14 -->
<g id="edge25" class="edge">
<title>s13&#45;&gt;s14</title>
<path fill="none" stroke="black" d="M1848.8,-411.8C1898.05,-408.05 2003.67,-395.31 1968,-356 1942.48,-327.87 1681.65,-318.56 1585.42,-316.07"/>
<polygon fill="black" stroke="black" points="1585.6,-312.57 1575.52,-315.82 1585.43,-319.57 1585.6,-312.57"/>
<text xml:space="preserve" text-anchor="middle" x="2111.3" y="-359.2" font-family="Times New Roman,serif" font-size="14.00">authenticationResponse / securityModeCommand</text>
</g>
<!-- s14&#45;&gt;s4 -->
<g id="edge29" class="edge">
<title>s14&#45;&gt;s4</title>
<path fill="none" stroke="black" d="M1541.66,-336.83C1527.09,-378.16 1501.45,-470.41 1533.75,-537.85 1549.83,-571.42 1579.38,-558.72 1599,-590.35 1613.94,-614.43 1619.64,-646.58 1621.78,-669.68"/>
<polygon fill="black" stroke="black" points="1618.27,-669.63 1622.5,-679.34 1625.25,-669.11 1618.27,-669.63"/>
<text xml:space="preserve" text-anchor="middle" x="1653.38" y="-509.09" font-family="Times New Roman,serif" font-size="14.00">securityModeComplete / registrationAccept</text>
</g>
<!-- s14&#45;&gt;s12 -->
<g id="edge27" class="edge">
<title>s14&#45;&gt;s12</title>
<path fill="none" stroke="black" d="M1552.66,-338.32C1558.16,-374.03 1574.35,-441.83 1620,-472.43 1675.04,-509.32 1705.31,-468.96 1768,-490.43 1771.07,-491.48 1774.16,-492.8 1777.18,-494.27"/>
<polygon fill="black" stroke="black" points="1775.27,-497.22 1785.72,-498.97 1778.64,-491.08 1775.27,-497.22"/>
<text xml:space="preserve" text-anchor="middle" x="1681.8" y="-409.16" font-family="Times New Roman,serif" font-size="14.00">deregistrationRequest / null_action</text>
</g>
<!-- s14&#45;&gt;s13 -->
<g id="edge26" class="edge">
<title>s14&#45;&gt;s13</title>
<path fill="none" stroke="black" d="M1555.96,-337.59C1560.47,-349.95 1568,-364.42 1580,-372.5 1614.27,-395.56 1724.78,-381.1 1765,-390.5 1774.23,-392.65 1783.95,-395.88 1792.82,-399.24"/>
<polygon fill="black" stroke="black" points="1791.5,-402.48 1802.08,-402.92 1794.08,-395.98 1791.5,-402.48"/>
<text xml:space="preserve" text-anchor="middle" x="1772" y="-359.2" font-family="Times New Roman,serif" font-size="14.00">registrationRequest | registrationRequestGUTI / authenticationRequest</text>
</g>
<!-- s15 -->
<g id="node16" class="node">
<title>s15</title>
<ellipse fill="none" stroke="black" cx="1183" cy="-114.43" rx="23.71" ry="23.71"/>
<text xml:space="preserve" text-anchor="middle" x="1183" y="-109.38" font-family="Times New Roman,serif" font-size="14.00">s15</text>
</g>
<!-- s14&#45;&gt;s15 -->
<g id="edge28" class="edge">
<title>s14&#45;&gt;s15</title>
<path fill="none" stroke="black" d="M1529.22,-302.08C1467.65,-268.89 1286,-170.96 1213.44,-131.84"/>
<polygon fill="black" stroke="black" points="1215.35,-128.89 1204.89,-127.23 1212.03,-135.05 1215.35,-128.89"/>
<text xml:space="preserve" text-anchor="middle" x="1499.72" y="-209.31" font-family="Times New Roman,serif" font-size="14.00">securityModeReject / null_action</text>
</g>
<!-- s15&#45;&gt;s1 -->
<g id="edge30" class="edge">
<title>s15&#45;&gt;s1</title>
<path fill="none" stroke="black" d="M1207.12,-116.28C1367.83,-122.14 2277,-157.73 2277,-213.36 2277,-791.89 2277,-791.89 2277,-791.89 2277,-868.56 1016.05,-879.2 802.54,-880.45"/>
<polygon fill="black" stroke="black" points="802.8,-876.95 792.82,-880.51 802.84,-883.95 802.8,-876.95"/>
<text xml:space="preserve" text-anchor="middle" x="2395.12" y="-509.09" font-family="Times New Roman,serif" font-size="14.00">registrationRequest / authenticationRequest</text>
</g>
<!-- s15&#45;&gt;s6 -->
<g id="edge31" class="edge">
<title>s15&#45;&gt;s6</title>
<path fill="none" stroke="black" d="M1160.03,-106.79C1102.64,-90.21 953.03,-46.98 889.36,-28.59"/>
<polygon fill="black" stroke="black" points="890.55,-25.29 879.97,-25.88 888.61,-32.02 890.55,-25.29"/>
<text xml:space="preserve" text-anchor="middle" x="1157.46" y="-59.42" font-family="Times New Roman,serif" font-size="14.00">registrationRequestGUTI / identityRequest</text>
</g>
<!-- s16&#45;&gt;s1 -->
<g id="edge32" class="edge">
<title>s16&#45;&gt;s1</title>
<path fill="none" stroke="black" d="M1319,-316.97C1364.2,-320.69 1459.18,-331.32 1479,-356 1483.59,-361.72 1481.85,-365.74 1479,-372.5 1425.03,-500.37 1309.47,-462.59 1255.25,-590.35 1244.23,-616.32 1255,-625.61 1255,-653.82 1255,-791.89 1255,-791.89 1255,-791.89 1255,-816.46 1257.29,-829.28 1238,-844.5 1203.94,-871.36 901.59,-878.54 802.96,-880.18"/>
<polygon fill="black" stroke="black" points="802.92,-876.68 792.98,-880.33 803.03,-883.68 802.92,-876.68"/>
<text xml:space="preserve" text-anchor="middle" x="1425.12" y="-604.41" font-family="Times New Roman,serif" font-size="14.00">registrationRequest | identityResponse / authenticationRequest</text>
</g>
<!-- s16&#45;&gt;s11 -->
<g id="edge33" class="edge">
<title>s16&#45;&gt;s11</title>
<path fill="none" stroke="black" d="M1291.93,-338.19C1289.07,-350.27 1283.58,-364.26 1273,-372.5 1226.53,-408.7 1047.5,-413.21 970.52,-413.43"/>
<polygon fill="black" stroke="black" points="970.59,-409.93 960.59,-413.43 970.59,-416.93 970.59,-409.93"/>
<text xml:space="preserve" text-anchor="middle" x="1380.01" y="-359.2" font-family="Times New Roman,serif" font-size="14.00">deregistrationRequest / null_action</text>
</g>
<!-- s17&#45;&gt;s10 -->
<g id="edge34" class="edge">
<title>s17&#45;&gt;s10</title>
<path fill="none" stroke="black" d="M813.97,-216.18C864.22,-218.76 973.26,-229.36 939,-272.57 921.98,-294.04 845.62,-305.26 799.9,-310.16"/>
<polygon fill="black" stroke="black" points="799.82,-306.65 790.22,-311.14 800.53,-313.61 799.82,-306.65"/>
<text xml:space="preserve" text-anchor="middle" x="1137.54" y="-259.27" font-family="Times New Roman,serif" font-size="14.00">registrationRequest | registrationRequestGUTI / authenticationRequest</text>
</g>
<!-- s17&#45;&gt;s11 -->
<g id="edge35" class="edge">
<title>s17&#45;&gt;s11</title>
<path fill="none" stroke="black" d="M766.45,-218.91C709.98,-227.97 569.49,-253.83 542.25,-290.57 529.7,-307.5 537.53,-317.45 542.25,-338 546.07,-354.61 544.8,-363.07 559,-372.5 590.33,-393.3 861.03,-379.53 897,-390.5 900.1,-391.44 903.21,-392.69 906.25,-394.12"/>
<polygon fill="black" stroke="black" points="904.35,-397.07 914.8,-398.77 907.68,-390.92 904.35,-397.07"/>
<text xml:space="preserve" text-anchor="middle" x="637.12" y="-309.23" font-family="Times New Roman,serif" font-size="14.00">deregistrationRequest / null_action</text>
</g>
<!-- s17&#45;&gt;s15 -->
<g id="edge36" class="edge">
<title>s17&#45;&gt;s15</title>
<path fill="none" stroke="black" d="M813.12,-207.6C879.47,-191.06 1070.79,-143.39 1149.03,-123.89"/>
<polygon fill="black" stroke="black" points="1149.83,-127.3 1158.69,-121.49 1148.14,-120.51 1149.83,-127.3"/>
<text xml:space="preserve" text-anchor="middle" x="1100.78" y="-159.34" font-family="Times New Roman,serif" font-size="14.00">securityModeReject / null_action</text>
</g>
<!-- __start0 -->
<g id="node19" class="node">
<title>__start0</title>
</g>
<!-- __start0&#45;&gt;s0 -->
<g id="edge37" class="edge">
<title>__start0&#45;&gt;s0</title>
<path fill="none" stroke="black" d="M219,-1046.48C219,-1045.25 219,-1022.79 219,-1003.08"/>
<polygon fill="black" stroke="black" points="222.5,-1003.19 219,-993.19 215.5,-1003.19 222.5,-1003.19"/>
</g>
</g>
</svg>
